<mxfile host="app.diagrams.net" modified="2021-12-17T15:03:14.000Z" agent="5.0 (Windows NT 10.0; Win64; x64) AppleWebKit/537.36 (KHTML, like Gecko) Chrome/93.0.4577.82 Safari/537.36" etag="b3tqbEuAB09013a9UiwY" version="15.9.6" type="github">
  <diagram id="OsBDe7f2c46JfeycY80i" name="第 1 页">
    <mxGraphModel dx="1422" dy="754" grid="1" gridSize="10" guides="1" tooltips="1" connect="1" arrows="1" fold="1" page="1" pageScale="1" pageWidth="827" pageHeight="1169" background="#FFFFFF" math="0" shadow="0">
      <root>
        <mxCell id="0" />
        <mxCell id="1" parent="0" />
        <mxCell id="-RKACE6XITMshn0D2Zvj-30" value="" style="rounded=0;whiteSpace=wrap;html=1;shadow=1;fillColor=#f8cecc;strokeColor=#b85450;" parent="1" vertex="1">
          <mxGeometry x="440" y="520" width="40" height="40" as="geometry" />
        </mxCell>
        <mxCell id="-RKACE6XITMshn0D2Zvj-27" value="" style="rounded=0;whiteSpace=wrap;html=1;shadow=1;fillColor=#f8cecc;strokeColor=#b85450;" parent="1" vertex="1">
          <mxGeometry x="440" y="560" width="40" height="40" as="geometry" />
        </mxCell>
        <mxCell id="-RKACE6XITMshn0D2Zvj-28" value="" style="rounded=0;whiteSpace=wrap;html=1;shadow=1;fillColor=#f8cecc;strokeColor=#b85450;" parent="1" vertex="1">
          <mxGeometry x="440" y="600" width="40" height="40" as="geometry" />
        </mxCell>
        <mxCell id="-RKACE6XITMshn0D2Zvj-26" value="" style="rounded=0;whiteSpace=wrap;html=1;shadow=1;fillColor=#f8cecc;strokeColor=#b85450;" parent="1" vertex="1">
          <mxGeometry x="440" y="640" width="40" height="40" as="geometry" />
        </mxCell>
        <mxCell id="9Na-chZIOd660EwkdCt9-16" value="" style="rounded=0;whiteSpace=wrap;html=1;opacity=20;" parent="1" vertex="1">
          <mxGeometry x="310" y="270" width="140" height="140" as="geometry" />
        </mxCell>
        <mxCell id="9Na-chZIOd660EwkdCt9-17" value="" style="rounded=0;whiteSpace=wrap;html=1;opacity=20;" parent="1" vertex="1">
          <mxGeometry x="270" y="190" width="60" height="60" as="geometry" />
        </mxCell>
        <mxCell id="9Na-chZIOd660EwkdCt9-15" value="" style="rounded=0;whiteSpace=wrap;html=1;opacity=20;" parent="1" vertex="1">
          <mxGeometry x="150" y="270" width="140" height="140" as="geometry" />
        </mxCell>
        <mxCell id="9Na-chZIOd660EwkdCt9-9" style="rounded=0;orthogonalLoop=1;jettySize=auto;html=1;exitX=0;exitY=1;exitDx=0;exitDy=0;entryX=1;entryY=0;entryDx=0;entryDy=0;" parent="1" source="9Na-chZIOd660EwkdCt9-1" target="9Na-chZIOd660EwkdCt9-2" edge="1">
          <mxGeometry relative="1" as="geometry" />
        </mxCell>
        <mxCell id="9Na-chZIOd660EwkdCt9-10" style="edgeStyle=none;rounded=0;orthogonalLoop=1;jettySize=auto;html=1;exitX=1;exitY=1;exitDx=0;exitDy=0;" parent="1" source="9Na-chZIOd660EwkdCt9-1" target="9Na-chZIOd660EwkdCt9-3" edge="1">
          <mxGeometry relative="1" as="geometry" />
        </mxCell>
        <mxCell id="9Na-chZIOd660EwkdCt9-1" value="&lt;font face=&quot;Comic Sans MS&quot; style=&quot;font-size: 15px&quot;&gt;b&lt;/font&gt;" style="ellipse;whiteSpace=wrap;html=1;aspect=fixed;fillColor=#f5f5f5;fontColor=#333333;strokeColor=#666666;" parent="1" vertex="1">
          <mxGeometry x="280" y="200" width="40" height="40" as="geometry" />
        </mxCell>
        <mxCell id="9Na-chZIOd660EwkdCt9-11" style="edgeStyle=none;rounded=0;orthogonalLoop=1;jettySize=auto;html=1;exitX=0;exitY=1;exitDx=0;exitDy=0;entryX=0.5;entryY=0;entryDx=0;entryDy=0;" parent="1" source="9Na-chZIOd660EwkdCt9-2" target="9Na-chZIOd660EwkdCt9-4" edge="1">
          <mxGeometry relative="1" as="geometry" />
        </mxCell>
        <mxCell id="9Na-chZIOd660EwkdCt9-12" style="edgeStyle=none;rounded=0;orthogonalLoop=1;jettySize=auto;html=1;exitX=1;exitY=1;exitDx=0;exitDy=0;entryX=0.5;entryY=0;entryDx=0;entryDy=0;" parent="1" source="9Na-chZIOd660EwkdCt9-2" target="9Na-chZIOd660EwkdCt9-5" edge="1">
          <mxGeometry relative="1" as="geometry" />
        </mxCell>
        <mxCell id="9Na-chZIOd660EwkdCt9-2" value="&lt;font style=&quot;font-size: 15px&quot; face=&quot;Comic Sans MS&quot;&gt;a&lt;/font&gt;" style="ellipse;whiteSpace=wrap;html=1;aspect=fixed;fillColor=#f5f5f5;fontColor=#333333;strokeColor=#666666;" parent="1" vertex="1">
          <mxGeometry x="200" y="280" width="40" height="40" as="geometry" />
        </mxCell>
        <mxCell id="9Na-chZIOd660EwkdCt9-13" style="edgeStyle=none;rounded=0;orthogonalLoop=1;jettySize=auto;html=1;exitX=0;exitY=1;exitDx=0;exitDy=0;entryX=0.5;entryY=0;entryDx=0;entryDy=0;" parent="1" source="9Na-chZIOd660EwkdCt9-3" target="9Na-chZIOd660EwkdCt9-6" edge="1">
          <mxGeometry relative="1" as="geometry" />
        </mxCell>
        <mxCell id="9Na-chZIOd660EwkdCt9-14" style="edgeStyle=none;rounded=0;orthogonalLoop=1;jettySize=auto;html=1;exitX=1;exitY=1;exitDx=0;exitDy=0;entryX=0.5;entryY=0;entryDx=0;entryDy=0;" parent="1" source="9Na-chZIOd660EwkdCt9-3" target="9Na-chZIOd660EwkdCt9-7" edge="1">
          <mxGeometry relative="1" as="geometry" />
        </mxCell>
        <mxCell id="9Na-chZIOd660EwkdCt9-3" value="&lt;font style=&quot;font-size: 15px&quot; face=&quot;Comic Sans MS&quot;&gt;c&lt;/font&gt;" style="ellipse;whiteSpace=wrap;html=1;aspect=fixed;fillColor=#f5f5f5;fontColor=#333333;strokeColor=#666666;" parent="1" vertex="1">
          <mxGeometry x="360" y="280" width="40" height="40" as="geometry" />
        </mxCell>
        <mxCell id="9Na-chZIOd660EwkdCt9-4" value="&lt;font style=&quot;font-size: 15px&quot; face=&quot;Comic Sans MS&quot;&gt;a1&lt;/font&gt;" style="ellipse;whiteSpace=wrap;html=1;aspect=fixed;fillColor=#f5f5f5;fontColor=#333333;strokeColor=#666666;" parent="1" vertex="1">
          <mxGeometry x="160" y="360" width="40" height="40" as="geometry" />
        </mxCell>
        <mxCell id="9Na-chZIOd660EwkdCt9-5" value="&lt;font style=&quot;font-size: 15px&quot; face=&quot;Comic Sans MS&quot;&gt;a2&lt;/font&gt;" style="ellipse;whiteSpace=wrap;html=1;aspect=fixed;fillColor=#f5f5f5;fontColor=#333333;strokeColor=#666666;" parent="1" vertex="1">
          <mxGeometry x="240" y="360" width="40" height="40" as="geometry" />
        </mxCell>
        <mxCell id="9Na-chZIOd660EwkdCt9-6" value="&lt;font style=&quot;font-size: 15px&quot; face=&quot;Comic Sans MS&quot;&gt;c1&lt;/font&gt;" style="ellipse;whiteSpace=wrap;html=1;aspect=fixed;fillColor=#f5f5f5;fontColor=#333333;strokeColor=#666666;" parent="1" vertex="1">
          <mxGeometry x="320" y="360" width="40" height="40" as="geometry" />
        </mxCell>
        <mxCell id="9Na-chZIOd660EwkdCt9-7" value="&lt;font style=&quot;font-size: 15px&quot; face=&quot;Comic Sans MS&quot;&gt;c2&lt;/font&gt;" style="ellipse;whiteSpace=wrap;html=1;aspect=fixed;fillColor=#f5f5f5;fontColor=#333333;strokeColor=#666666;" parent="1" vertex="1">
          <mxGeometry x="400" y="360" width="40" height="40" as="geometry" />
        </mxCell>
        <mxCell id="9Na-chZIOd660EwkdCt9-18" value="1" style="text;html=1;strokeColor=none;fillColor=none;align=center;verticalAlign=middle;whiteSpace=wrap;rounded=0;fontFamily=Comic Sans MS;fontSize=15;opacity=20;" parent="1" vertex="1">
          <mxGeometry x="150" y="270" width="40" height="40" as="geometry" />
        </mxCell>
        <mxCell id="9Na-chZIOd660EwkdCt9-19" value="2" style="text;html=1;strokeColor=none;fillColor=none;align=center;verticalAlign=middle;whiteSpace=wrap;rounded=0;fontFamily=Comic Sans MS;fontSize=15;opacity=20;" parent="1" vertex="1">
          <mxGeometry x="230" y="190" width="40" height="40" as="geometry" />
        </mxCell>
        <mxCell id="9Na-chZIOd660EwkdCt9-20" value="3" style="text;html=1;strokeColor=none;fillColor=none;align=center;verticalAlign=middle;whiteSpace=wrap;rounded=0;fontFamily=Comic Sans MS;fontSize=15;opacity=20;" parent="1" vertex="1">
          <mxGeometry x="410" y="270" width="40" height="40" as="geometry" />
        </mxCell>
        <mxCell id="9Na-chZIOd660EwkdCt9-21" value="&lt;div class=&quot;okr-block-clipboard&quot;&gt;&lt;/div&gt;&lt;div&gt;&lt;font style=&quot;font-size: 11px&quot;&gt;遍历顺序:&amp;nbsp;&lt;/font&gt;&lt;/div&gt;&lt;div&gt;&lt;font style=&quot;font-size: 11px&quot;&gt;先遍历左子树，再遍历当前节点，再遍历右子树。&lt;/font&gt;&lt;/div&gt;&lt;div&gt;&lt;font style=&quot;font-size: 11px&quot;&gt;其左子树和右子树也用同样的方式进行遍历。&lt;/font&gt;&lt;/div&gt;" style="text;html=1;strokeColor=none;fillColor=none;align=center;verticalAlign=middle;whiteSpace=wrap;rounded=0;fontFamily=Comic Sans MS;fontSize=15;opacity=20;" parent="1" vertex="1">
          <mxGeometry x="120" y="110" width="360" height="60" as="geometry" />
        </mxCell>
        <mxCell id="-RKACE6XITMshn0D2Zvj-4" style="rounded=0;orthogonalLoop=1;jettySize=auto;html=1;exitX=0;exitY=1;exitDx=0;exitDy=0;entryX=1;entryY=0;entryDx=0;entryDy=0;shadow=0;" parent="1" source="-RKACE6XITMshn0D2Zvj-6" target="-RKACE6XITMshn0D2Zvj-9" edge="1">
          <mxGeometry relative="1" as="geometry" />
        </mxCell>
        <mxCell id="-RKACE6XITMshn0D2Zvj-5" style="edgeStyle=none;rounded=0;orthogonalLoop=1;jettySize=auto;html=1;exitX=1;exitY=1;exitDx=0;exitDy=0;shadow=0;" parent="1" source="-RKACE6XITMshn0D2Zvj-6" target="-RKACE6XITMshn0D2Zvj-12" edge="1">
          <mxGeometry relative="1" as="geometry" />
        </mxCell>
        <mxCell id="-RKACE6XITMshn0D2Zvj-6" value="&lt;font face=&quot;Comic Sans MS&quot; style=&quot;font-size: 15px&quot;&gt;b&lt;/font&gt;" style="ellipse;whiteSpace=wrap;html=1;aspect=fixed;fillColor=#f8cecc;strokeColor=#b85450;shadow=1;" parent="1" vertex="1">
          <mxGeometry x="280" y="520" width="40" height="40" as="geometry" />
        </mxCell>
        <mxCell id="-RKACE6XITMshn0D2Zvj-7" style="edgeStyle=none;rounded=0;orthogonalLoop=1;jettySize=auto;html=1;exitX=0;exitY=1;exitDx=0;exitDy=0;entryX=0.5;entryY=0;entryDx=0;entryDy=0;shadow=0;" parent="1" source="-RKACE6XITMshn0D2Zvj-9" target="-RKACE6XITMshn0D2Zvj-13" edge="1">
          <mxGeometry relative="1" as="geometry" />
        </mxCell>
        <mxCell id="-RKACE6XITMshn0D2Zvj-8" style="edgeStyle=none;rounded=0;orthogonalLoop=1;jettySize=auto;html=1;exitX=1;exitY=1;exitDx=0;exitDy=0;entryX=0.5;entryY=0;entryDx=0;entryDy=0;shadow=1;" parent="1" source="-RKACE6XITMshn0D2Zvj-9" target="-RKACE6XITMshn0D2Zvj-14" edge="1">
          <mxGeometry relative="1" as="geometry" />
        </mxCell>
        <mxCell id="-RKACE6XITMshn0D2Zvj-9" value="&lt;font style=&quot;font-size: 15px&quot; face=&quot;Comic Sans MS&quot;&gt;a&lt;/font&gt;" style="ellipse;whiteSpace=wrap;html=1;aspect=fixed;fillColor=#f5f5f5;fontColor=#333333;strokeColor=#666666;shadow=1;" parent="1" vertex="1">
          <mxGeometry x="199" y="600" width="40" height="40" as="geometry" />
        </mxCell>
        <mxCell id="-RKACE6XITMshn0D2Zvj-10" style="edgeStyle=none;rounded=0;orthogonalLoop=1;jettySize=auto;html=1;exitX=0;exitY=1;exitDx=0;exitDy=0;entryX=0.5;entryY=0;entryDx=0;entryDy=0;shadow=0;" parent="1" source="-RKACE6XITMshn0D2Zvj-12" target="-RKACE6XITMshn0D2Zvj-15" edge="1">
          <mxGeometry relative="1" as="geometry" />
        </mxCell>
        <mxCell id="-RKACE6XITMshn0D2Zvj-12" value="&lt;font style=&quot;font-size: 15px&quot; face=&quot;Comic Sans MS&quot;&gt;c&lt;/font&gt;" style="ellipse;whiteSpace=wrap;html=1;aspect=fixed;fillColor=#f5f5f5;fontColor=#333333;strokeColor=#666666;shadow=1;" parent="1" vertex="1">
          <mxGeometry x="360" y="600" width="40" height="40" as="geometry" />
        </mxCell>
        <mxCell id="-RKACE6XITMshn0D2Zvj-13" value="&lt;font style=&quot;font-size: 15px&quot; face=&quot;Comic Sans MS&quot;&gt;a1&lt;/font&gt;" style="ellipse;whiteSpace=wrap;html=1;aspect=fixed;fillColor=#f5f5f5;fontColor=#333333;strokeColor=#666666;shadow=1;" parent="1" vertex="1">
          <mxGeometry x="159" y="680" width="40" height="40" as="geometry" />
        </mxCell>
        <mxCell id="-RKACE6XITMshn0D2Zvj-14" value="&lt;font style=&quot;font-size: 15px&quot; face=&quot;Comic Sans MS&quot;&gt;a2&lt;/font&gt;" style="ellipse;whiteSpace=wrap;html=1;aspect=fixed;fillColor=#f5f5f5;fontColor=#333333;strokeColor=#666666;shadow=1;" parent="1" vertex="1">
          <mxGeometry x="240" y="680" width="40" height="40" as="geometry" />
        </mxCell>
        <mxCell id="-RKACE6XITMshn0D2Zvj-15" value="&lt;font style=&quot;font-size: 15px&quot; face=&quot;Comic Sans MS&quot;&gt;c1&lt;/font&gt;" style="ellipse;whiteSpace=wrap;html=1;aspect=fixed;fillColor=#f5f5f5;fontColor=#333333;strokeColor=#666666;shadow=1;" parent="1" vertex="1">
          <mxGeometry x="320" y="680" width="40" height="40" as="geometry" />
        </mxCell>
        <mxCell id="-RKACE6XITMshn0D2Zvj-25" value="&lt;font style=&quot;font-size: 15px&quot; face=&quot;Comic Sans MS&quot;&gt;b&lt;/font&gt;" style="rounded=0;whiteSpace=wrap;html=1;shadow=1;fillColor=#f8cecc;strokeColor=#b85450;" parent="1" vertex="1">
          <mxGeometry x="440" y="680" width="40" height="40" as="geometry" />
        </mxCell>
        <mxCell id="-RKACE6XITMshn0D2Zvj-32" value="" style="rounded=0;whiteSpace=wrap;html=1;shadow=1;fillColor=#f8cecc;strokeColor=#b85450;" parent="1" vertex="1">
          <mxGeometry x="920" y="520" width="40" height="40" as="geometry" />
        </mxCell>
        <mxCell id="-RKACE6XITMshn0D2Zvj-33" value="" style="rounded=0;whiteSpace=wrap;html=1;shadow=1;fillColor=#f8cecc;strokeColor=#b85450;" parent="1" vertex="1">
          <mxGeometry x="920" y="560" width="40" height="40" as="geometry" />
        </mxCell>
        <mxCell id="-RKACE6XITMshn0D2Zvj-34" value="" style="rounded=0;whiteSpace=wrap;html=1;shadow=1;fillColor=#f8cecc;strokeColor=#b85450;" parent="1" vertex="1">
          <mxGeometry x="920" y="600" width="40" height="40" as="geometry" />
        </mxCell>
        <mxCell id="-RKACE6XITMshn0D2Zvj-35" value="&lt;font style=&quot;font-size: 15px&quot; face=&quot;Comic Sans MS&quot;&gt;a&lt;/font&gt;" style="rounded=0;whiteSpace=wrap;html=1;shadow=1;fillColor=#f8cecc;strokeColor=#b85450;" parent="1" vertex="1">
          <mxGeometry x="920" y="640" width="40" height="40" as="geometry" />
        </mxCell>
        <mxCell id="-RKACE6XITMshn0D2Zvj-36" style="rounded=0;orthogonalLoop=1;jettySize=auto;html=1;exitX=0;exitY=1;exitDx=0;exitDy=0;entryX=1;entryY=0;entryDx=0;entryDy=0;shadow=0;" parent="1" source="-RKACE6XITMshn0D2Zvj-38" target="-RKACE6XITMshn0D2Zvj-41" edge="1">
          <mxGeometry relative="1" as="geometry" />
        </mxCell>
        <mxCell id="-RKACE6XITMshn0D2Zvj-37" style="edgeStyle=none;rounded=0;orthogonalLoop=1;jettySize=auto;html=1;exitX=1;exitY=1;exitDx=0;exitDy=0;shadow=0;" parent="1" source="-RKACE6XITMshn0D2Zvj-38" target="-RKACE6XITMshn0D2Zvj-44" edge="1">
          <mxGeometry relative="1" as="geometry" />
        </mxCell>
        <mxCell id="-RKACE6XITMshn0D2Zvj-38" value="&lt;font face=&quot;Comic Sans MS&quot; style=&quot;font-size: 15px&quot;&gt;b&lt;/font&gt;" style="ellipse;whiteSpace=wrap;html=1;aspect=fixed;fillColor=#f8cecc;strokeColor=#b85450;shadow=1;" parent="1" vertex="1">
          <mxGeometry x="760" y="520" width="40" height="40" as="geometry" />
        </mxCell>
        <mxCell id="-RKACE6XITMshn0D2Zvj-39" style="edgeStyle=none;rounded=0;orthogonalLoop=1;jettySize=auto;html=1;exitX=0;exitY=1;exitDx=0;exitDy=0;entryX=0.5;entryY=0;entryDx=0;entryDy=0;shadow=0;" parent="1" source="-RKACE6XITMshn0D2Zvj-41" target="-RKACE6XITMshn0D2Zvj-47" edge="1">
          <mxGeometry relative="1" as="geometry" />
        </mxCell>
        <mxCell id="-RKACE6XITMshn0D2Zvj-40" style="edgeStyle=none;rounded=0;orthogonalLoop=1;jettySize=auto;html=1;exitX=1;exitY=1;exitDx=0;exitDy=0;entryX=0.5;entryY=0;entryDx=0;entryDy=0;shadow=1;" parent="1" source="-RKACE6XITMshn0D2Zvj-41" target="-RKACE6XITMshn0D2Zvj-48" edge="1">
          <mxGeometry relative="1" as="geometry" />
        </mxCell>
        <mxCell id="-RKACE6XITMshn0D2Zvj-41" value="&lt;font style=&quot;font-size: 15px&quot; face=&quot;Comic Sans MS&quot;&gt;a&lt;/font&gt;" style="ellipse;whiteSpace=wrap;html=1;aspect=fixed;fillColor=#f8cecc;strokeColor=#b85450;shadow=1;" parent="1" vertex="1">
          <mxGeometry x="680" y="600" width="40" height="40" as="geometry" />
        </mxCell>
        <mxCell id="-RKACE6XITMshn0D2Zvj-42" style="edgeStyle=none;rounded=0;orthogonalLoop=1;jettySize=auto;html=1;exitX=0;exitY=1;exitDx=0;exitDy=0;entryX=0.5;entryY=0;entryDx=0;entryDy=0;shadow=0;" parent="1" source="-RKACE6XITMshn0D2Zvj-44" target="-RKACE6XITMshn0D2Zvj-49" edge="1">
          <mxGeometry relative="1" as="geometry" />
        </mxCell>
        <mxCell id="-RKACE6XITMshn0D2Zvj-44" value="&lt;font style=&quot;font-size: 15px&quot; face=&quot;Comic Sans MS&quot;&gt;c&lt;/font&gt;" style="ellipse;whiteSpace=wrap;html=1;aspect=fixed;fillColor=#f5f5f5;fontColor=#333333;strokeColor=#666666;shadow=1;" parent="1" vertex="1">
          <mxGeometry x="840" y="600" width="40" height="40" as="geometry" />
        </mxCell>
        <mxCell id="-RKACE6XITMshn0D2Zvj-47" value="&lt;font style=&quot;font-size: 15px&quot; face=&quot;Comic Sans MS&quot;&gt;a1&lt;/font&gt;" style="ellipse;whiteSpace=wrap;html=1;aspect=fixed;fillColor=#f5f5f5;fontColor=#333333;strokeColor=#666666;shadow=1;" parent="1" vertex="1">
          <mxGeometry x="640" y="680" width="40" height="40" as="geometry" />
        </mxCell>
        <mxCell id="-RKACE6XITMshn0D2Zvj-48" value="&lt;font style=&quot;font-size: 15px&quot; face=&quot;Comic Sans MS&quot;&gt;a2&lt;/font&gt;" style="ellipse;whiteSpace=wrap;html=1;aspect=fixed;fillColor=#f5f5f5;fontColor=#333333;strokeColor=#666666;shadow=1;" parent="1" vertex="1">
          <mxGeometry x="720" y="680" width="40" height="40" as="geometry" />
        </mxCell>
        <mxCell id="-RKACE6XITMshn0D2Zvj-49" value="&lt;font style=&quot;font-size: 15px&quot; face=&quot;Comic Sans MS&quot;&gt;c1&lt;/font&gt;" style="ellipse;whiteSpace=wrap;html=1;aspect=fixed;fillColor=#f5f5f5;fontColor=#333333;strokeColor=#666666;shadow=1;" parent="1" vertex="1">
          <mxGeometry x="800" y="680" width="40" height="40" as="geometry" />
        </mxCell>
        <mxCell id="-RKACE6XITMshn0D2Zvj-53" value="&lt;font style=&quot;font-size: 15px&quot; face=&quot;Comic Sans MS&quot;&gt;b&lt;/font&gt;" style="rounded=0;whiteSpace=wrap;html=1;shadow=1;fillColor=#f8cecc;strokeColor=#b85450;" parent="1" vertex="1">
          <mxGeometry x="920" y="680" width="40" height="40" as="geometry" />
        </mxCell>
        <mxCell id="-RKACE6XITMshn0D2Zvj-55" value="" style="rounded=0;whiteSpace=wrap;html=1;shadow=1;fillColor=#f8cecc;strokeColor=#b85450;" parent="1" vertex="1">
          <mxGeometry x="440" y="880" width="40" height="40" as="geometry" />
        </mxCell>
        <mxCell id="-RKACE6XITMshn0D2Zvj-56" value="" style="rounded=0;whiteSpace=wrap;html=1;shadow=1;fillColor=#f8cecc;strokeColor=#b85450;" parent="1" vertex="1">
          <mxGeometry x="440" y="920" width="40" height="40" as="geometry" />
        </mxCell>
        <mxCell id="-RKACE6XITMshn0D2Zvj-57" value="&lt;font style=&quot;font-size: 15px&quot; face=&quot;Comic Sans MS&quot;&gt;a1&lt;/font&gt;" style="rounded=0;whiteSpace=wrap;html=1;shadow=1;fillColor=#f8cecc;strokeColor=#b85450;" parent="1" vertex="1">
          <mxGeometry x="440" y="960" width="40" height="40" as="geometry" />
        </mxCell>
        <mxCell id="-RKACE6XITMshn0D2Zvj-58" value="&lt;font style=&quot;font-size: 15px&quot; face=&quot;Comic Sans MS&quot;&gt;a&lt;/font&gt;" style="rounded=0;whiteSpace=wrap;html=1;shadow=1;fillColor=#f8cecc;strokeColor=#b85450;" parent="1" vertex="1">
          <mxGeometry x="440" y="1000" width="40" height="40" as="geometry" />
        </mxCell>
        <mxCell id="-RKACE6XITMshn0D2Zvj-59" style="rounded=0;orthogonalLoop=1;jettySize=auto;html=1;exitX=0;exitY=1;exitDx=0;exitDy=0;entryX=1;entryY=0;entryDx=0;entryDy=0;shadow=0;" parent="1" source="-RKACE6XITMshn0D2Zvj-61" target="-RKACE6XITMshn0D2Zvj-64" edge="1">
          <mxGeometry relative="1" as="geometry" />
        </mxCell>
        <mxCell id="-RKACE6XITMshn0D2Zvj-60" style="edgeStyle=none;rounded=0;orthogonalLoop=1;jettySize=auto;html=1;exitX=1;exitY=1;exitDx=0;exitDy=0;shadow=0;" parent="1" source="-RKACE6XITMshn0D2Zvj-61" target="-RKACE6XITMshn0D2Zvj-67" edge="1">
          <mxGeometry relative="1" as="geometry" />
        </mxCell>
        <mxCell id="-RKACE6XITMshn0D2Zvj-61" value="&lt;font face=&quot;Comic Sans MS&quot; style=&quot;font-size: 15px&quot;&gt;b&lt;/font&gt;" style="ellipse;whiteSpace=wrap;html=1;aspect=fixed;fillColor=#f8cecc;strokeColor=#b85450;shadow=1;" parent="1" vertex="1">
          <mxGeometry x="279.5" y="880" width="40" height="40" as="geometry" />
        </mxCell>
        <mxCell id="-RKACE6XITMshn0D2Zvj-62" style="edgeStyle=none;rounded=0;orthogonalLoop=1;jettySize=auto;html=1;exitX=0;exitY=1;exitDx=0;exitDy=0;entryX=0.5;entryY=0;entryDx=0;entryDy=0;shadow=0;" parent="1" source="-RKACE6XITMshn0D2Zvj-64" target="-RKACE6XITMshn0D2Zvj-70" edge="1">
          <mxGeometry relative="1" as="geometry" />
        </mxCell>
        <mxCell id="-RKACE6XITMshn0D2Zvj-63" style="edgeStyle=none;rounded=0;orthogonalLoop=1;jettySize=auto;html=1;exitX=1;exitY=1;exitDx=0;exitDy=0;entryX=0.5;entryY=0;entryDx=0;entryDy=0;shadow=1;" parent="1" source="-RKACE6XITMshn0D2Zvj-64" target="-RKACE6XITMshn0D2Zvj-71" edge="1">
          <mxGeometry relative="1" as="geometry" />
        </mxCell>
        <mxCell id="-RKACE6XITMshn0D2Zvj-64" value="&lt;font style=&quot;font-size: 15px&quot; face=&quot;Comic Sans MS&quot;&gt;a&lt;/font&gt;" style="ellipse;whiteSpace=wrap;html=1;aspect=fixed;fillColor=#f8cecc;strokeColor=#b85450;shadow=1;" parent="1" vertex="1">
          <mxGeometry x="200" y="960" width="40" height="40" as="geometry" />
        </mxCell>
        <mxCell id="-RKACE6XITMshn0D2Zvj-65" style="edgeStyle=none;rounded=0;orthogonalLoop=1;jettySize=auto;html=1;exitX=0;exitY=1;exitDx=0;exitDy=0;entryX=0.5;entryY=0;entryDx=0;entryDy=0;shadow=0;" parent="1" source="-RKACE6XITMshn0D2Zvj-67" target="-RKACE6XITMshn0D2Zvj-72" edge="1">
          <mxGeometry relative="1" as="geometry" />
        </mxCell>
        <mxCell id="-RKACE6XITMshn0D2Zvj-67" value="&lt;font style=&quot;font-size: 15px&quot; face=&quot;Comic Sans MS&quot;&gt;c&lt;/font&gt;" style="ellipse;whiteSpace=wrap;html=1;aspect=fixed;fillColor=#f5f5f5;fontColor=#333333;strokeColor=#666666;shadow=1;" parent="1" vertex="1">
          <mxGeometry x="359" y="960" width="40" height="40" as="geometry" />
        </mxCell>
        <mxCell id="-RKACE6XITMshn0D2Zvj-70" value="&lt;font style=&quot;font-size: 15px&quot; face=&quot;Comic Sans MS&quot;&gt;a1&lt;/font&gt;" style="ellipse;whiteSpace=wrap;html=1;aspect=fixed;fillColor=#f8cecc;strokeColor=#b85450;shadow=1;" parent="1" vertex="1">
          <mxGeometry x="160" y="1040" width="40" height="40" as="geometry" />
        </mxCell>
        <mxCell id="-RKACE6XITMshn0D2Zvj-71" value="&lt;font style=&quot;font-size: 15px&quot; face=&quot;Comic Sans MS&quot;&gt;a2&lt;/font&gt;" style="ellipse;whiteSpace=wrap;html=1;aspect=fixed;fillColor=#f5f5f5;fontColor=#333333;strokeColor=#666666;shadow=1;" parent="1" vertex="1">
          <mxGeometry x="240" y="1040" width="40" height="40" as="geometry" />
        </mxCell>
        <mxCell id="-RKACE6XITMshn0D2Zvj-72" value="&lt;font style=&quot;font-size: 15px&quot; face=&quot;Comic Sans MS&quot;&gt;c1&lt;/font&gt;" style="ellipse;whiteSpace=wrap;html=1;aspect=fixed;fillColor=#f5f5f5;fontColor=#333333;strokeColor=#666666;shadow=1;" parent="1" vertex="1">
          <mxGeometry x="320" y="1040" width="40" height="40" as="geometry" />
        </mxCell>
        <mxCell id="-RKACE6XITMshn0D2Zvj-76" value="&lt;font style=&quot;font-size: 15px&quot; face=&quot;Comic Sans MS&quot;&gt;b&lt;/font&gt;" style="rounded=0;whiteSpace=wrap;html=1;shadow=1;fillColor=#f8cecc;strokeColor=#b85450;" parent="1" vertex="1">
          <mxGeometry x="440" y="1040" width="40" height="40" as="geometry" />
        </mxCell>
        <mxCell id="-RKACE6XITMshn0D2Zvj-78" value="" style="rounded=0;whiteSpace=wrap;html=1;shadow=1;fillColor=#f8cecc;strokeColor=#b85450;" parent="1" vertex="1">
          <mxGeometry x="920" y="880" width="40" height="40" as="geometry" />
        </mxCell>
        <mxCell id="-RKACE6XITMshn0D2Zvj-79" value="" style="rounded=0;whiteSpace=wrap;html=1;shadow=1;fillColor=#f8cecc;strokeColor=#b85450;" parent="1" vertex="1">
          <mxGeometry x="920" y="920" width="40" height="40" as="geometry" />
        </mxCell>
        <mxCell id="-RKACE6XITMshn0D2Zvj-80" value="" style="rounded=0;whiteSpace=wrap;html=1;shadow=1;fillColor=#f8cecc;strokeColor=#b85450;" parent="1" vertex="1">
          <mxGeometry x="920" y="960" width="40" height="40" as="geometry" />
        </mxCell>
        <mxCell id="-RKACE6XITMshn0D2Zvj-81" value="&lt;font style=&quot;font-size: 15px&quot; face=&quot;Comic Sans MS&quot;&gt;a&lt;/font&gt;" style="rounded=0;whiteSpace=wrap;html=1;shadow=1;fillColor=#f8cecc;strokeColor=#b85450;" parent="1" vertex="1">
          <mxGeometry x="920" y="1000" width="40" height="40" as="geometry" />
        </mxCell>
        <mxCell id="-RKACE6XITMshn0D2Zvj-82" style="rounded=0;orthogonalLoop=1;jettySize=auto;html=1;exitX=0;exitY=1;exitDx=0;exitDy=0;entryX=1;entryY=0;entryDx=0;entryDy=0;shadow=0;" parent="1" source="-RKACE6XITMshn0D2Zvj-84" target="-RKACE6XITMshn0D2Zvj-87" edge="1">
          <mxGeometry relative="1" as="geometry" />
        </mxCell>
        <mxCell id="-RKACE6XITMshn0D2Zvj-83" style="edgeStyle=none;rounded=0;orthogonalLoop=1;jettySize=auto;html=1;exitX=1;exitY=1;exitDx=0;exitDy=0;shadow=0;" parent="1" source="-RKACE6XITMshn0D2Zvj-84" target="-RKACE6XITMshn0D2Zvj-90" edge="1">
          <mxGeometry relative="1" as="geometry" />
        </mxCell>
        <mxCell id="-RKACE6XITMshn0D2Zvj-84" value="&lt;font face=&quot;Comic Sans MS&quot; style=&quot;font-size: 15px&quot;&gt;b&lt;/font&gt;" style="ellipse;whiteSpace=wrap;html=1;aspect=fixed;fillColor=#f8cecc;strokeColor=#b85450;shadow=1;" parent="1" vertex="1">
          <mxGeometry x="760" y="880" width="40" height="40" as="geometry" />
        </mxCell>
        <mxCell id="-RKACE6XITMshn0D2Zvj-85" style="edgeStyle=none;rounded=0;orthogonalLoop=1;jettySize=auto;html=1;exitX=0;exitY=1;exitDx=0;exitDy=0;entryX=0.5;entryY=0;entryDx=0;entryDy=0;shadow=0;" parent="1" source="-RKACE6XITMshn0D2Zvj-87" target="-RKACE6XITMshn0D2Zvj-93" edge="1">
          <mxGeometry relative="1" as="geometry" />
        </mxCell>
        <mxCell id="-RKACE6XITMshn0D2Zvj-86" style="edgeStyle=none;rounded=0;orthogonalLoop=1;jettySize=auto;html=1;exitX=1;exitY=1;exitDx=0;exitDy=0;entryX=0.5;entryY=0;entryDx=0;entryDy=0;shadow=1;" parent="1" source="-RKACE6XITMshn0D2Zvj-87" target="-RKACE6XITMshn0D2Zvj-94" edge="1">
          <mxGeometry relative="1" as="geometry" />
        </mxCell>
        <mxCell id="-RKACE6XITMshn0D2Zvj-87" value="&lt;font style=&quot;font-size: 15px&quot; face=&quot;Comic Sans MS&quot;&gt;a&lt;/font&gt;" style="ellipse;whiteSpace=wrap;html=1;aspect=fixed;fillColor=#f8cecc;strokeColor=#b85450;shadow=1;" parent="1" vertex="1">
          <mxGeometry x="680" y="960" width="40" height="40" as="geometry" />
        </mxCell>
        <mxCell id="-RKACE6XITMshn0D2Zvj-88" style="edgeStyle=none;rounded=0;orthogonalLoop=1;jettySize=auto;html=1;exitX=0;exitY=1;exitDx=0;exitDy=0;entryX=0.5;entryY=0;entryDx=0;entryDy=0;shadow=0;" parent="1" source="-RKACE6XITMshn0D2Zvj-90" target="-RKACE6XITMshn0D2Zvj-95" edge="1">
          <mxGeometry relative="1" as="geometry" />
        </mxCell>
        <mxCell id="-RKACE6XITMshn0D2Zvj-90" value="&lt;font style=&quot;font-size: 15px&quot; face=&quot;Comic Sans MS&quot;&gt;c&lt;/font&gt;" style="ellipse;whiteSpace=wrap;html=1;aspect=fixed;fillColor=#f5f5f5;fontColor=#333333;strokeColor=#666666;shadow=1;" parent="1" vertex="1">
          <mxGeometry x="840" y="960" width="40" height="40" as="geometry" />
        </mxCell>
        <mxCell id="-RKACE6XITMshn0D2Zvj-93" value="&lt;font style=&quot;font-size: 15px&quot; face=&quot;Comic Sans MS&quot;&gt;a1&lt;/font&gt;" style="ellipse;whiteSpace=wrap;html=1;aspect=fixed;fillColor=#dae8fc;strokeColor=#6c8ebf;shadow=1;" parent="1" vertex="1">
          <mxGeometry x="640" y="1040" width="40" height="40" as="geometry" />
        </mxCell>
        <mxCell id="-RKACE6XITMshn0D2Zvj-94" value="&lt;font style=&quot;font-size: 15px&quot; face=&quot;Comic Sans MS&quot;&gt;a2&lt;/font&gt;" style="ellipse;whiteSpace=wrap;html=1;aspect=fixed;fillColor=#f5f5f5;fontColor=#333333;strokeColor=#666666;shadow=1;" parent="1" vertex="1">
          <mxGeometry x="720" y="1040" width="40" height="40" as="geometry" />
        </mxCell>
        <mxCell id="-RKACE6XITMshn0D2Zvj-95" value="&lt;font style=&quot;font-size: 15px&quot; face=&quot;Comic Sans MS&quot;&gt;c1&lt;/font&gt;" style="ellipse;whiteSpace=wrap;html=1;aspect=fixed;fillColor=#f5f5f5;fontColor=#333333;strokeColor=#666666;shadow=1;" parent="1" vertex="1">
          <mxGeometry x="800" y="1040" width="40" height="40" as="geometry" />
        </mxCell>
        <mxCell id="-RKACE6XITMshn0D2Zvj-99" value="&lt;font style=&quot;font-size: 15px&quot; face=&quot;Comic Sans MS&quot;&gt;b&lt;/font&gt;" style="rounded=0;whiteSpace=wrap;html=1;shadow=1;fillColor=#f8cecc;strokeColor=#b85450;" parent="1" vertex="1">
          <mxGeometry x="920" y="1040" width="40" height="40" as="geometry" />
        </mxCell>
        <mxCell id="-RKACE6XITMshn0D2Zvj-100" value="stack" style="text;html=1;strokeColor=none;fillColor=none;align=center;verticalAlign=middle;whiteSpace=wrap;rounded=0;shadow=1;fontFamily=Comic Sans MS;fontSize=15;opacity=50;" parent="1" vertex="1">
          <mxGeometry x="440" y="720" width="40" height="30" as="geometry" />
        </mxCell>
        <mxCell id="-RKACE6XITMshn0D2Zvj-103" value="" style="rounded=0;whiteSpace=wrap;html=1;shadow=0;fontFamily=Comic Sans MS;fontSize=15;sketch=0;" parent="1" vertex="1">
          <mxGeometry x="180" y="760" width="40" height="40" as="geometry" />
        </mxCell>
        <mxCell id="-RKACE6XITMshn0D2Zvj-104" value="result" style="text;html=1;strokeColor=none;fillColor=none;align=center;verticalAlign=middle;whiteSpace=wrap;rounded=0;shadow=1;fontFamily=Comic Sans MS;fontSize=15;opacity=50;" parent="1" vertex="1">
          <mxGeometry x="179" y="800" width="240" height="40" as="geometry" />
        </mxCell>
        <mxCell id="-RKACE6XITMshn0D2Zvj-105" value="" style="rounded=0;whiteSpace=wrap;html=1;shadow=0;fontFamily=Comic Sans MS;fontSize=15;sketch=0;" parent="1" vertex="1">
          <mxGeometry x="219" y="760" width="40" height="40" as="geometry" />
        </mxCell>
        <mxCell id="-RKACE6XITMshn0D2Zvj-106" value="" style="rounded=0;whiteSpace=wrap;html=1;shadow=0;fontFamily=Comic Sans MS;fontSize=15;sketch=0;" parent="1" vertex="1">
          <mxGeometry x="259" y="760" width="40" height="40" as="geometry" />
        </mxCell>
        <mxCell id="-RKACE6XITMshn0D2Zvj-107" value="" style="rounded=0;whiteSpace=wrap;html=1;shadow=0;fontFamily=Comic Sans MS;fontSize=15;sketch=0;" parent="1" vertex="1">
          <mxGeometry x="299" y="760" width="40" height="40" as="geometry" />
        </mxCell>
        <mxCell id="-RKACE6XITMshn0D2Zvj-108" value="" style="rounded=0;whiteSpace=wrap;html=1;shadow=0;fontFamily=Comic Sans MS;fontSize=15;sketch=0;" parent="1" vertex="1">
          <mxGeometry x="339" y="760" width="40" height="40" as="geometry" />
        </mxCell>
        <mxCell id="-RKACE6XITMshn0D2Zvj-109" value="" style="rounded=0;whiteSpace=wrap;html=1;shadow=0;fontFamily=Comic Sans MS;fontSize=15;sketch=0;" parent="1" vertex="1">
          <mxGeometry x="379" y="760" width="40" height="40" as="geometry" />
        </mxCell>
        <mxCell id="-RKACE6XITMshn0D2Zvj-111" value="" style="rounded=0;whiteSpace=wrap;html=1;shadow=0;fontFamily=Comic Sans MS;fontSize=15;sketch=0;" parent="1" vertex="1">
          <mxGeometry x="660" y="760" width="40" height="40" as="geometry" />
        </mxCell>
        <mxCell id="-RKACE6XITMshn0D2Zvj-112" value="result" style="text;html=1;strokeColor=none;fillColor=none;align=center;verticalAlign=middle;whiteSpace=wrap;rounded=0;shadow=1;fontFamily=Comic Sans MS;fontSize=15;opacity=50;" parent="1" vertex="1">
          <mxGeometry x="660" y="800" width="240" height="40" as="geometry" />
        </mxCell>
        <mxCell id="-RKACE6XITMshn0D2Zvj-113" value="" style="rounded=0;whiteSpace=wrap;html=1;shadow=0;fontFamily=Comic Sans MS;fontSize=15;sketch=0;" parent="1" vertex="1">
          <mxGeometry x="700" y="760" width="40" height="40" as="geometry" />
        </mxCell>
        <mxCell id="-RKACE6XITMshn0D2Zvj-114" value="" style="rounded=0;whiteSpace=wrap;html=1;shadow=0;fontFamily=Comic Sans MS;fontSize=15;sketch=0;" parent="1" vertex="1">
          <mxGeometry x="740" y="760" width="40" height="40" as="geometry" />
        </mxCell>
        <mxCell id="-RKACE6XITMshn0D2Zvj-115" value="" style="rounded=0;whiteSpace=wrap;html=1;shadow=0;fontFamily=Comic Sans MS;fontSize=15;sketch=0;" parent="1" vertex="1">
          <mxGeometry x="780" y="760" width="40" height="40" as="geometry" />
        </mxCell>
        <mxCell id="-RKACE6XITMshn0D2Zvj-116" value="" style="rounded=0;whiteSpace=wrap;html=1;shadow=0;fontFamily=Comic Sans MS;fontSize=15;sketch=0;" parent="1" vertex="1">
          <mxGeometry x="820" y="760" width="40" height="40" as="geometry" />
        </mxCell>
        <mxCell id="-RKACE6XITMshn0D2Zvj-117" value="" style="rounded=0;whiteSpace=wrap;html=1;shadow=0;fontFamily=Comic Sans MS;fontSize=15;sketch=0;" parent="1" vertex="1">
          <mxGeometry x="860" y="760" width="40" height="40" as="geometry" />
        </mxCell>
        <mxCell id="-RKACE6XITMshn0D2Zvj-135" value="stack" style="text;html=1;strokeColor=none;fillColor=none;align=center;verticalAlign=middle;whiteSpace=wrap;rounded=0;shadow=1;fontFamily=Comic Sans MS;fontSize=15;opacity=50;" parent="1" vertex="1">
          <mxGeometry x="440" y="1080" width="40" height="30" as="geometry" />
        </mxCell>
        <mxCell id="-RKACE6XITMshn0D2Zvj-136" value="stack" style="text;html=1;strokeColor=none;fillColor=none;align=center;verticalAlign=middle;whiteSpace=wrap;rounded=0;shadow=1;fontFamily=Comic Sans MS;fontSize=15;opacity=50;" parent="1" vertex="1">
          <mxGeometry x="920" y="720" width="40" height="30" as="geometry" />
        </mxCell>
        <mxCell id="-RKACE6XITMshn0D2Zvj-137" value="stack" style="text;html=1;strokeColor=none;fillColor=none;align=center;verticalAlign=middle;whiteSpace=wrap;rounded=0;shadow=1;fontFamily=Comic Sans MS;fontSize=15;opacity=50;" parent="1" vertex="1">
          <mxGeometry x="920" y="1080" width="40" height="30" as="geometry" />
        </mxCell>
        <mxCell id="-RKACE6XITMshn0D2Zvj-138" value="" style="rounded=0;whiteSpace=wrap;html=1;shadow=1;fillColor=#f8cecc;strokeColor=#b85450;" parent="1" vertex="1">
          <mxGeometry x="440" y="1240" width="40" height="40" as="geometry" />
        </mxCell>
        <mxCell id="-RKACE6XITMshn0D2Zvj-139" value="" style="rounded=0;whiteSpace=wrap;html=1;shadow=1;fillColor=#f8cecc;strokeColor=#b85450;" parent="1" vertex="1">
          <mxGeometry x="440" y="1280" width="40" height="40" as="geometry" />
        </mxCell>
        <mxCell id="-RKACE6XITMshn0D2Zvj-140" value="" style="rounded=0;whiteSpace=wrap;html=1;shadow=1;fillColor=#f8cecc;strokeColor=#b85450;" parent="1" vertex="1">
          <mxGeometry x="440" y="1320" width="40" height="40" as="geometry" />
        </mxCell>
        <mxCell id="-RKACE6XITMshn0D2Zvj-141" value="&lt;font style=&quot;font-size: 15px&quot; face=&quot;Comic Sans MS&quot;&gt;a2&lt;/font&gt;" style="rounded=0;whiteSpace=wrap;html=1;shadow=1;fillColor=#f8cecc;strokeColor=#b85450;" parent="1" vertex="1">
          <mxGeometry x="440" y="1360" width="40" height="40" as="geometry" />
        </mxCell>
        <mxCell id="-RKACE6XITMshn0D2Zvj-142" style="rounded=0;orthogonalLoop=1;jettySize=auto;html=1;exitX=0;exitY=1;exitDx=0;exitDy=0;entryX=1;entryY=0;entryDx=0;entryDy=0;shadow=0;" parent="1" source="-RKACE6XITMshn0D2Zvj-144" target="-RKACE6XITMshn0D2Zvj-147" edge="1">
          <mxGeometry relative="1" as="geometry" />
        </mxCell>
        <mxCell id="-RKACE6XITMshn0D2Zvj-143" style="edgeStyle=none;rounded=0;orthogonalLoop=1;jettySize=auto;html=1;exitX=1;exitY=1;exitDx=0;exitDy=0;shadow=0;" parent="1" source="-RKACE6XITMshn0D2Zvj-144" target="-RKACE6XITMshn0D2Zvj-150" edge="1">
          <mxGeometry relative="1" as="geometry" />
        </mxCell>
        <mxCell id="-RKACE6XITMshn0D2Zvj-144" value="&lt;font face=&quot;Comic Sans MS&quot; style=&quot;font-size: 15px&quot;&gt;b&lt;/font&gt;" style="ellipse;whiteSpace=wrap;html=1;aspect=fixed;fillColor=#f8cecc;strokeColor=#b85450;shadow=1;" parent="1" vertex="1">
          <mxGeometry x="279" y="1240" width="40" height="40" as="geometry" />
        </mxCell>
        <mxCell id="-RKACE6XITMshn0D2Zvj-145" style="edgeStyle=none;rounded=0;orthogonalLoop=1;jettySize=auto;html=1;exitX=0;exitY=1;exitDx=0;exitDy=0;entryX=0.5;entryY=0;entryDx=0;entryDy=0;shadow=0;" parent="1" source="-RKACE6XITMshn0D2Zvj-147" target="-RKACE6XITMshn0D2Zvj-151" edge="1">
          <mxGeometry relative="1" as="geometry" />
        </mxCell>
        <mxCell id="-RKACE6XITMshn0D2Zvj-146" style="edgeStyle=none;rounded=0;orthogonalLoop=1;jettySize=auto;html=1;exitX=1;exitY=1;exitDx=0;exitDy=0;entryX=0.5;entryY=0;entryDx=0;entryDy=0;shadow=1;" parent="1" source="-RKACE6XITMshn0D2Zvj-147" target="-RKACE6XITMshn0D2Zvj-152" edge="1">
          <mxGeometry relative="1" as="geometry" />
        </mxCell>
        <mxCell id="-RKACE6XITMshn0D2Zvj-147" value="&lt;font style=&quot;font-size: 15px&quot; face=&quot;Comic Sans MS&quot;&gt;a&lt;/font&gt;" style="ellipse;whiteSpace=wrap;html=1;aspect=fixed;fillColor=#dae8fc;strokeColor=#6c8ebf;shadow=1;" parent="1" vertex="1">
          <mxGeometry x="199" y="1320" width="40" height="40" as="geometry" />
        </mxCell>
        <mxCell id="-RKACE6XITMshn0D2Zvj-148" style="edgeStyle=none;rounded=0;orthogonalLoop=1;jettySize=auto;html=1;exitX=0;exitY=1;exitDx=0;exitDy=0;entryX=0.5;entryY=0;entryDx=0;entryDy=0;shadow=0;" parent="1" source="-RKACE6XITMshn0D2Zvj-150" target="-RKACE6XITMshn0D2Zvj-153" edge="1">
          <mxGeometry relative="1" as="geometry" />
        </mxCell>
        <mxCell id="-RKACE6XITMshn0D2Zvj-150" value="&lt;font style=&quot;font-size: 15px&quot; face=&quot;Comic Sans MS&quot;&gt;c&lt;/font&gt;" style="ellipse;whiteSpace=wrap;html=1;aspect=fixed;fillColor=#f5f5f5;fontColor=#333333;strokeColor=#666666;shadow=1;" parent="1" vertex="1">
          <mxGeometry x="359" y="1320" width="40" height="40" as="geometry" />
        </mxCell>
        <mxCell id="-RKACE6XITMshn0D2Zvj-151" value="&lt;font style=&quot;font-size: 15px&quot; face=&quot;Comic Sans MS&quot;&gt;a1&lt;/font&gt;" style="ellipse;whiteSpace=wrap;html=1;aspect=fixed;fillColor=#dae8fc;strokeColor=#6c8ebf;shadow=1;" parent="1" vertex="1">
          <mxGeometry x="159" y="1400" width="40" height="40" as="geometry" />
        </mxCell>
        <mxCell id="-RKACE6XITMshn0D2Zvj-152" value="&lt;font style=&quot;font-size: 15px&quot; face=&quot;Comic Sans MS&quot;&gt;a2&lt;/font&gt;" style="ellipse;whiteSpace=wrap;html=1;aspect=fixed;fillColor=#f8cecc;strokeColor=#b85450;shadow=1;" parent="1" vertex="1">
          <mxGeometry x="239" y="1400" width="40" height="40" as="geometry" />
        </mxCell>
        <mxCell id="-RKACE6XITMshn0D2Zvj-153" value="&lt;font style=&quot;font-size: 15px&quot; face=&quot;Comic Sans MS&quot;&gt;c1&lt;/font&gt;" style="ellipse;whiteSpace=wrap;html=1;aspect=fixed;fillColor=#f5f5f5;fontColor=#333333;strokeColor=#666666;shadow=1;" parent="1" vertex="1">
          <mxGeometry x="319" y="1400" width="40" height="40" as="geometry" />
        </mxCell>
        <mxCell id="-RKACE6XITMshn0D2Zvj-155" value="&lt;font style=&quot;font-size: 15px&quot; face=&quot;Comic Sans MS&quot;&gt;b&lt;/font&gt;" style="rounded=0;whiteSpace=wrap;html=1;shadow=1;fillColor=#f8cecc;strokeColor=#b85450;" parent="1" vertex="1">
          <mxGeometry x="440" y="1400" width="40" height="40" as="geometry" />
        </mxCell>
        <mxCell id="-RKACE6XITMshn0D2Zvj-156" value="a1" style="rounded=0;whiteSpace=wrap;html=1;shadow=0;fontFamily=Comic Sans MS;fontSize=15;sketch=0;" parent="1" vertex="1">
          <mxGeometry x="179" y="1480" width="40" height="40" as="geometry" />
        </mxCell>
        <mxCell id="-RKACE6XITMshn0D2Zvj-157" value="result" style="text;html=1;strokeColor=none;fillColor=none;align=center;verticalAlign=middle;whiteSpace=wrap;rounded=0;shadow=1;fontFamily=Comic Sans MS;fontSize=15;opacity=50;" parent="1" vertex="1">
          <mxGeometry x="179" y="1520" width="241" height="40" as="geometry" />
        </mxCell>
        <mxCell id="-RKACE6XITMshn0D2Zvj-158" value="a" style="rounded=0;whiteSpace=wrap;html=1;shadow=0;fontFamily=Comic Sans MS;fontSize=15;sketch=0;" parent="1" vertex="1">
          <mxGeometry x="219" y="1480" width="40" height="40" as="geometry" />
        </mxCell>
        <mxCell id="-RKACE6XITMshn0D2Zvj-159" value="" style="rounded=0;whiteSpace=wrap;html=1;shadow=0;fontFamily=Comic Sans MS;fontSize=15;sketch=0;" parent="1" vertex="1">
          <mxGeometry x="259" y="1480" width="40" height="40" as="geometry" />
        </mxCell>
        <mxCell id="-RKACE6XITMshn0D2Zvj-160" value="" style="rounded=0;whiteSpace=wrap;html=1;shadow=0;fontFamily=Comic Sans MS;fontSize=15;sketch=0;" parent="1" vertex="1">
          <mxGeometry x="299" y="1480" width="40" height="40" as="geometry" />
        </mxCell>
        <mxCell id="-RKACE6XITMshn0D2Zvj-161" value="" style="rounded=0;whiteSpace=wrap;html=1;shadow=0;fontFamily=Comic Sans MS;fontSize=15;sketch=0;" parent="1" vertex="1">
          <mxGeometry x="339" y="1480" width="40" height="40" as="geometry" />
        </mxCell>
        <mxCell id="-RKACE6XITMshn0D2Zvj-162" value="" style="rounded=0;whiteSpace=wrap;html=1;shadow=0;fontFamily=Comic Sans MS;fontSize=15;sketch=0;" parent="1" vertex="1">
          <mxGeometry x="379" y="1480" width="40" height="40" as="geometry" />
        </mxCell>
        <mxCell id="-RKACE6XITMshn0D2Zvj-164" value="stack" style="text;html=1;strokeColor=none;fillColor=none;align=center;verticalAlign=middle;whiteSpace=wrap;rounded=0;shadow=1;fontFamily=Comic Sans MS;fontSize=15;opacity=50;" parent="1" vertex="1">
          <mxGeometry x="440" y="1440" width="40" height="30" as="geometry" />
        </mxCell>
        <mxCell id="-RKACE6XITMshn0D2Zvj-165" value="" style="rounded=0;whiteSpace=wrap;html=1;shadow=1;fillColor=#f8cecc;strokeColor=#b85450;" parent="1" vertex="1">
          <mxGeometry x="920" y="1240" width="40" height="40" as="geometry" />
        </mxCell>
        <mxCell id="-RKACE6XITMshn0D2Zvj-166" value="" style="rounded=0;whiteSpace=wrap;html=1;shadow=1;fillColor=#f8cecc;strokeColor=#b85450;" parent="1" vertex="1">
          <mxGeometry x="920" y="1280" width="40" height="40" as="geometry" />
        </mxCell>
        <mxCell id="-RKACE6XITMshn0D2Zvj-167" value="" style="rounded=0;whiteSpace=wrap;html=1;shadow=1;fillColor=#f8cecc;strokeColor=#b85450;" parent="1" vertex="1">
          <mxGeometry x="920" y="1320" width="40" height="40" as="geometry" />
        </mxCell>
        <mxCell id="-RKACE6XITMshn0D2Zvj-168" value="" style="rounded=0;whiteSpace=wrap;html=1;shadow=1;fillColor=#f8cecc;strokeColor=#b85450;" parent="1" vertex="1">
          <mxGeometry x="920" y="1360" width="40" height="40" as="geometry" />
        </mxCell>
        <mxCell id="-RKACE6XITMshn0D2Zvj-169" style="rounded=0;orthogonalLoop=1;jettySize=auto;html=1;exitX=0;exitY=1;exitDx=0;exitDy=0;entryX=1;entryY=0;entryDx=0;entryDy=0;shadow=0;" parent="1" source="-RKACE6XITMshn0D2Zvj-171" target="-RKACE6XITMshn0D2Zvj-174" edge="1">
          <mxGeometry relative="1" as="geometry" />
        </mxCell>
        <mxCell id="-RKACE6XITMshn0D2Zvj-170" style="edgeStyle=none;rounded=0;orthogonalLoop=1;jettySize=auto;html=1;exitX=1;exitY=1;exitDx=0;exitDy=0;shadow=0;" parent="1" source="-RKACE6XITMshn0D2Zvj-171" target="-RKACE6XITMshn0D2Zvj-177" edge="1">
          <mxGeometry relative="1" as="geometry" />
        </mxCell>
        <mxCell id="-RKACE6XITMshn0D2Zvj-171" value="&lt;font face=&quot;Comic Sans MS&quot; style=&quot;font-size: 15px&quot;&gt;b&lt;/font&gt;" style="ellipse;whiteSpace=wrap;html=1;aspect=fixed;fillColor=#f8cecc;strokeColor=#b85450;shadow=1;" parent="1" vertex="1">
          <mxGeometry x="760" y="1240" width="40" height="40" as="geometry" />
        </mxCell>
        <mxCell id="-RKACE6XITMshn0D2Zvj-172" style="edgeStyle=none;rounded=0;orthogonalLoop=1;jettySize=auto;html=1;exitX=0;exitY=1;exitDx=0;exitDy=0;entryX=0.5;entryY=0;entryDx=0;entryDy=0;shadow=0;" parent="1" source="-RKACE6XITMshn0D2Zvj-174" target="-RKACE6XITMshn0D2Zvj-178" edge="1">
          <mxGeometry relative="1" as="geometry" />
        </mxCell>
        <mxCell id="-RKACE6XITMshn0D2Zvj-173" style="edgeStyle=none;rounded=0;orthogonalLoop=1;jettySize=auto;html=1;exitX=1;exitY=1;exitDx=0;exitDy=0;entryX=0.5;entryY=0;entryDx=0;entryDy=0;shadow=1;" parent="1" source="-RKACE6XITMshn0D2Zvj-174" target="-RKACE6XITMshn0D2Zvj-179" edge="1">
          <mxGeometry relative="1" as="geometry" />
        </mxCell>
        <mxCell id="-RKACE6XITMshn0D2Zvj-174" value="&lt;font style=&quot;font-size: 15px&quot; face=&quot;Comic Sans MS&quot;&gt;a&lt;/font&gt;" style="ellipse;whiteSpace=wrap;html=1;aspect=fixed;fillColor=#dae8fc;strokeColor=#6c8ebf;shadow=1;" parent="1" vertex="1">
          <mxGeometry x="680" y="1320" width="40" height="40" as="geometry" />
        </mxCell>
        <mxCell id="-RKACE6XITMshn0D2Zvj-175" style="edgeStyle=none;rounded=0;orthogonalLoop=1;jettySize=auto;html=1;exitX=0;exitY=1;exitDx=0;exitDy=0;entryX=0.5;entryY=0;entryDx=0;entryDy=0;shadow=0;" parent="1" source="-RKACE6XITMshn0D2Zvj-177" target="-RKACE6XITMshn0D2Zvj-180" edge="1">
          <mxGeometry relative="1" as="geometry" />
        </mxCell>
        <mxCell id="-RKACE6XITMshn0D2Zvj-177" value="&lt;font style=&quot;font-size: 15px&quot; face=&quot;Comic Sans MS&quot;&gt;c&lt;/font&gt;" style="ellipse;whiteSpace=wrap;html=1;aspect=fixed;fillColor=#f5f5f5;fontColor=#333333;strokeColor=#666666;shadow=1;" parent="1" vertex="1">
          <mxGeometry x="840" y="1320" width="40" height="40" as="geometry" />
        </mxCell>
        <mxCell id="-RKACE6XITMshn0D2Zvj-178" value="&lt;font style=&quot;font-size: 15px&quot; face=&quot;Comic Sans MS&quot;&gt;a1&lt;/font&gt;" style="ellipse;whiteSpace=wrap;html=1;aspect=fixed;fillColor=#dae8fc;strokeColor=#6c8ebf;shadow=1;" parent="1" vertex="1">
          <mxGeometry x="640" y="1400" width="40" height="40" as="geometry" />
        </mxCell>
        <mxCell id="-RKACE6XITMshn0D2Zvj-179" value="&lt;font style=&quot;font-size: 15px&quot; face=&quot;Comic Sans MS&quot;&gt;a2&lt;/font&gt;" style="ellipse;whiteSpace=wrap;html=1;aspect=fixed;fillColor=#dae8fc;strokeColor=#6c8ebf;shadow=1;" parent="1" vertex="1">
          <mxGeometry x="720" y="1400" width="40" height="40" as="geometry" />
        </mxCell>
        <mxCell id="-RKACE6XITMshn0D2Zvj-180" value="&lt;font style=&quot;font-size: 15px&quot; face=&quot;Comic Sans MS&quot;&gt;c1&lt;/font&gt;" style="ellipse;whiteSpace=wrap;html=1;aspect=fixed;fillColor=#f5f5f5;fontColor=#333333;strokeColor=#666666;shadow=1;" parent="1" vertex="1">
          <mxGeometry x="800" y="1400" width="40" height="40" as="geometry" />
        </mxCell>
        <mxCell id="-RKACE6XITMshn0D2Zvj-182" value="&lt;font style=&quot;font-size: 15px&quot; face=&quot;Comic Sans MS&quot;&gt;b&lt;/font&gt;" style="rounded=0;whiteSpace=wrap;html=1;shadow=1;fillColor=#f8cecc;strokeColor=#b85450;" parent="1" vertex="1">
          <mxGeometry x="920" y="1400" width="40" height="40" as="geometry" />
        </mxCell>
        <mxCell id="-RKACE6XITMshn0D2Zvj-183" value="a1" style="rounded=0;whiteSpace=wrap;html=1;shadow=0;fontFamily=Comic Sans MS;fontSize=15;sketch=0;" parent="1" vertex="1">
          <mxGeometry x="660" y="1480" width="40" height="40" as="geometry" />
        </mxCell>
        <mxCell id="-RKACE6XITMshn0D2Zvj-184" value="result" style="text;html=1;strokeColor=none;fillColor=none;align=center;verticalAlign=middle;whiteSpace=wrap;rounded=0;shadow=1;fontFamily=Comic Sans MS;fontSize=15;opacity=50;" parent="1" vertex="1">
          <mxGeometry x="660" y="1520" width="240" height="40" as="geometry" />
        </mxCell>
        <mxCell id="-RKACE6XITMshn0D2Zvj-185" value="a" style="rounded=0;whiteSpace=wrap;html=1;shadow=0;fontFamily=Comic Sans MS;fontSize=15;sketch=0;" parent="1" vertex="1">
          <mxGeometry x="700" y="1480" width="40" height="40" as="geometry" />
        </mxCell>
        <mxCell id="-RKACE6XITMshn0D2Zvj-186" value="a2" style="rounded=0;whiteSpace=wrap;html=1;shadow=0;fontFamily=Comic Sans MS;fontSize=15;sketch=0;" parent="1" vertex="1">
          <mxGeometry x="740" y="1480" width="40" height="40" as="geometry" />
        </mxCell>
        <mxCell id="-RKACE6XITMshn0D2Zvj-187" value="" style="rounded=0;whiteSpace=wrap;html=1;shadow=0;fontFamily=Comic Sans MS;fontSize=15;sketch=0;" parent="1" vertex="1">
          <mxGeometry x="780" y="1480" width="40" height="40" as="geometry" />
        </mxCell>
        <mxCell id="-RKACE6XITMshn0D2Zvj-188" value="" style="rounded=0;whiteSpace=wrap;html=1;shadow=0;fontFamily=Comic Sans MS;fontSize=15;sketch=0;" parent="1" vertex="1">
          <mxGeometry x="820" y="1480" width="40" height="40" as="geometry" />
        </mxCell>
        <mxCell id="-RKACE6XITMshn0D2Zvj-189" value="" style="rounded=0;whiteSpace=wrap;html=1;shadow=0;fontFamily=Comic Sans MS;fontSize=15;sketch=0;" parent="1" vertex="1">
          <mxGeometry x="860" y="1480" width="40" height="40" as="geometry" />
        </mxCell>
        <mxCell id="-RKACE6XITMshn0D2Zvj-191" value="stack" style="text;html=1;strokeColor=none;fillColor=none;align=center;verticalAlign=middle;whiteSpace=wrap;rounded=0;shadow=1;fontFamily=Comic Sans MS;fontSize=15;opacity=50;" parent="1" vertex="1">
          <mxGeometry x="920" y="1440" width="40" height="30" as="geometry" />
        </mxCell>
        <mxCell id="-RKACE6XITMshn0D2Zvj-192" value="" style="rounded=0;whiteSpace=wrap;html=1;shadow=1;fillColor=#f8cecc;strokeColor=#b85450;" parent="1" vertex="1">
          <mxGeometry x="440" y="1599" width="40" height="40" as="geometry" />
        </mxCell>
        <mxCell id="-RKACE6XITMshn0D2Zvj-193" value="" style="rounded=0;whiteSpace=wrap;html=1;shadow=1;fillColor=#f8cecc;strokeColor=#b85450;" parent="1" vertex="1">
          <mxGeometry x="440" y="1639" width="40" height="40" as="geometry" />
        </mxCell>
        <mxCell id="-RKACE6XITMshn0D2Zvj-194" value="" style="rounded=0;whiteSpace=wrap;html=1;shadow=1;fillColor=#f8cecc;strokeColor=#b85450;" parent="1" vertex="1">
          <mxGeometry x="440" y="1679" width="40" height="40" as="geometry" />
        </mxCell>
        <mxCell id="-RKACE6XITMshn0D2Zvj-195" value="" style="rounded=0;whiteSpace=wrap;html=1;shadow=1;fillColor=#f8cecc;strokeColor=#b85450;" parent="1" vertex="1">
          <mxGeometry x="440" y="1719" width="40" height="40" as="geometry" />
        </mxCell>
        <mxCell id="-RKACE6XITMshn0D2Zvj-196" style="rounded=0;orthogonalLoop=1;jettySize=auto;html=1;exitX=0;exitY=1;exitDx=0;exitDy=0;entryX=1;entryY=0;entryDx=0;entryDy=0;shadow=0;" parent="1" source="-RKACE6XITMshn0D2Zvj-198" target="-RKACE6XITMshn0D2Zvj-201" edge="1">
          <mxGeometry relative="1" as="geometry" />
        </mxCell>
        <mxCell id="-RKACE6XITMshn0D2Zvj-197" style="edgeStyle=none;rounded=0;orthogonalLoop=1;jettySize=auto;html=1;exitX=1;exitY=1;exitDx=0;exitDy=0;shadow=0;" parent="1" source="-RKACE6XITMshn0D2Zvj-198" target="-RKACE6XITMshn0D2Zvj-204" edge="1">
          <mxGeometry relative="1" as="geometry" />
        </mxCell>
        <mxCell id="-RKACE6XITMshn0D2Zvj-198" value="&lt;font face=&quot;Comic Sans MS&quot; style=&quot;font-size: 15px&quot;&gt;b&lt;/font&gt;" style="ellipse;whiteSpace=wrap;html=1;aspect=fixed;fillColor=#dae8fc;strokeColor=#6c8ebf;shadow=1;" parent="1" vertex="1">
          <mxGeometry x="279.5" y="1599" width="40" height="40" as="geometry" />
        </mxCell>
        <mxCell id="-RKACE6XITMshn0D2Zvj-199" style="edgeStyle=none;rounded=0;orthogonalLoop=1;jettySize=auto;html=1;exitX=0;exitY=1;exitDx=0;exitDy=0;entryX=0.5;entryY=0;entryDx=0;entryDy=0;shadow=0;" parent="1" source="-RKACE6XITMshn0D2Zvj-201" target="-RKACE6XITMshn0D2Zvj-205" edge="1">
          <mxGeometry relative="1" as="geometry" />
        </mxCell>
        <mxCell id="-RKACE6XITMshn0D2Zvj-200" style="edgeStyle=none;rounded=0;orthogonalLoop=1;jettySize=auto;html=1;exitX=1;exitY=1;exitDx=0;exitDy=0;entryX=0.5;entryY=0;entryDx=0;entryDy=0;shadow=1;" parent="1" source="-RKACE6XITMshn0D2Zvj-201" target="-RKACE6XITMshn0D2Zvj-206" edge="1">
          <mxGeometry relative="1" as="geometry" />
        </mxCell>
        <mxCell id="-RKACE6XITMshn0D2Zvj-201" value="&lt;font style=&quot;font-size: 15px&quot; face=&quot;Comic Sans MS&quot;&gt;a&lt;/font&gt;" style="ellipse;whiteSpace=wrap;html=1;aspect=fixed;fillColor=#dae8fc;strokeColor=#6c8ebf;shadow=1;" parent="1" vertex="1">
          <mxGeometry x="200" y="1679" width="40" height="40" as="geometry" />
        </mxCell>
        <mxCell id="-RKACE6XITMshn0D2Zvj-202" style="edgeStyle=none;rounded=0;orthogonalLoop=1;jettySize=auto;html=1;exitX=0;exitY=1;exitDx=0;exitDy=0;entryX=0.5;entryY=0;entryDx=0;entryDy=0;shadow=0;" parent="1" source="-RKACE6XITMshn0D2Zvj-204" target="-RKACE6XITMshn0D2Zvj-207" edge="1">
          <mxGeometry relative="1" as="geometry" />
        </mxCell>
        <mxCell id="-RKACE6XITMshn0D2Zvj-204" value="&lt;font style=&quot;font-size: 15px&quot; face=&quot;Comic Sans MS&quot;&gt;c&lt;/font&gt;" style="ellipse;whiteSpace=wrap;html=1;aspect=fixed;fillColor=#f8cecc;strokeColor=#b85450;shadow=1;" parent="1" vertex="1">
          <mxGeometry x="360" y="1679" width="40" height="40" as="geometry" />
        </mxCell>
        <mxCell id="-RKACE6XITMshn0D2Zvj-205" value="&lt;font style=&quot;font-size: 15px&quot; face=&quot;Comic Sans MS&quot;&gt;a1&lt;/font&gt;" style="ellipse;whiteSpace=wrap;html=1;aspect=fixed;fillColor=#dae8fc;strokeColor=#6c8ebf;shadow=1;" parent="1" vertex="1">
          <mxGeometry x="160" y="1759" width="40" height="40" as="geometry" />
        </mxCell>
        <mxCell id="-RKACE6XITMshn0D2Zvj-206" value="&lt;font style=&quot;font-size: 15px&quot; face=&quot;Comic Sans MS&quot;&gt;a2&lt;/font&gt;" style="ellipse;whiteSpace=wrap;html=1;aspect=fixed;fillColor=#dae8fc;strokeColor=#6c8ebf;shadow=1;" parent="1" vertex="1">
          <mxGeometry x="240" y="1759" width="40" height="40" as="geometry" />
        </mxCell>
        <mxCell id="-RKACE6XITMshn0D2Zvj-207" value="&lt;font style=&quot;font-size: 15px&quot; face=&quot;Comic Sans MS&quot;&gt;c1&lt;/font&gt;" style="ellipse;whiteSpace=wrap;html=1;aspect=fixed;fillColor=#f5f5f5;fontColor=#333333;strokeColor=#666666;shadow=1;" parent="1" vertex="1">
          <mxGeometry x="320" y="1759" width="40" height="40" as="geometry" />
        </mxCell>
        <mxCell id="-RKACE6XITMshn0D2Zvj-209" value="&lt;font style=&quot;font-size: 15px&quot; face=&quot;Comic Sans MS&quot;&gt;c&lt;/font&gt;" style="rounded=0;whiteSpace=wrap;html=1;shadow=1;fillColor=#f8cecc;strokeColor=#b85450;" parent="1" vertex="1">
          <mxGeometry x="440" y="1759" width="40" height="40" as="geometry" />
        </mxCell>
        <mxCell id="-RKACE6XITMshn0D2Zvj-210" value="a1" style="rounded=0;whiteSpace=wrap;html=1;shadow=0;fontFamily=Comic Sans MS;fontSize=15;sketch=0;" parent="1" vertex="1">
          <mxGeometry x="180" y="1840" width="40" height="40" as="geometry" />
        </mxCell>
        <mxCell id="-RKACE6XITMshn0D2Zvj-211" value="result" style="text;html=1;strokeColor=none;fillColor=none;align=center;verticalAlign=middle;whiteSpace=wrap;rounded=0;shadow=1;fontFamily=Comic Sans MS;fontSize=15;opacity=50;" parent="1" vertex="1">
          <mxGeometry x="180" y="1880" width="240" height="40" as="geometry" />
        </mxCell>
        <mxCell id="-RKACE6XITMshn0D2Zvj-212" value="a" style="rounded=0;whiteSpace=wrap;html=1;shadow=0;fontFamily=Comic Sans MS;fontSize=15;sketch=0;" parent="1" vertex="1">
          <mxGeometry x="220" y="1840" width="40" height="40" as="geometry" />
        </mxCell>
        <mxCell id="-RKACE6XITMshn0D2Zvj-213" value="a2" style="rounded=0;whiteSpace=wrap;html=1;shadow=0;fontFamily=Comic Sans MS;fontSize=15;sketch=0;" parent="1" vertex="1">
          <mxGeometry x="260" y="1840" width="40" height="40" as="geometry" />
        </mxCell>
        <mxCell id="-RKACE6XITMshn0D2Zvj-214" value="b" style="rounded=0;whiteSpace=wrap;html=1;shadow=0;fontFamily=Comic Sans MS;fontSize=15;sketch=0;" parent="1" vertex="1">
          <mxGeometry x="300" y="1840" width="40" height="40" as="geometry" />
        </mxCell>
        <mxCell id="-RKACE6XITMshn0D2Zvj-215" value="" style="rounded=0;whiteSpace=wrap;html=1;shadow=0;fontFamily=Comic Sans MS;fontSize=15;sketch=0;" parent="1" vertex="1">
          <mxGeometry x="340" y="1840" width="40" height="40" as="geometry" />
        </mxCell>
        <mxCell id="-RKACE6XITMshn0D2Zvj-216" value="" style="rounded=0;whiteSpace=wrap;html=1;shadow=0;fontFamily=Comic Sans MS;fontSize=15;sketch=0;" parent="1" vertex="1">
          <mxGeometry x="380" y="1840" width="40" height="40" as="geometry" />
        </mxCell>
        <mxCell id="-RKACE6XITMshn0D2Zvj-218" value="stack" style="text;html=1;strokeColor=none;fillColor=none;align=center;verticalAlign=middle;whiteSpace=wrap;rounded=0;shadow=1;fontFamily=Comic Sans MS;fontSize=15;opacity=50;" parent="1" vertex="1">
          <mxGeometry x="440" y="1799" width="40" height="30" as="geometry" />
        </mxCell>
        <mxCell id="-RKACE6XITMshn0D2Zvj-219" value="" style="rounded=0;whiteSpace=wrap;html=1;shadow=1;fillColor=#f8cecc;strokeColor=#b85450;" parent="1" vertex="1">
          <mxGeometry x="920" y="1599" width="40" height="40" as="geometry" />
        </mxCell>
        <mxCell id="-RKACE6XITMshn0D2Zvj-220" value="" style="rounded=0;whiteSpace=wrap;html=1;shadow=1;fillColor=#f8cecc;strokeColor=#b85450;" parent="1" vertex="1">
          <mxGeometry x="920" y="1639" width="40" height="40" as="geometry" />
        </mxCell>
        <mxCell id="-RKACE6XITMshn0D2Zvj-221" value="" style="rounded=0;whiteSpace=wrap;html=1;shadow=1;fillColor=#f8cecc;strokeColor=#b85450;" parent="1" vertex="1">
          <mxGeometry x="920" y="1679" width="40" height="40" as="geometry" />
        </mxCell>
        <mxCell id="-RKACE6XITMshn0D2Zvj-222" value="&lt;font style=&quot;font-size: 15px&quot; face=&quot;Comic Sans MS&quot;&gt;c1&lt;/font&gt;" style="rounded=0;whiteSpace=wrap;html=1;shadow=1;fillColor=#f8cecc;strokeColor=#b85450;" parent="1" vertex="1">
          <mxGeometry x="920" y="1719" width="40" height="40" as="geometry" />
        </mxCell>
        <mxCell id="-RKACE6XITMshn0D2Zvj-223" style="rounded=0;orthogonalLoop=1;jettySize=auto;html=1;exitX=0;exitY=1;exitDx=0;exitDy=0;entryX=1;entryY=0;entryDx=0;entryDy=0;shadow=0;" parent="1" source="-RKACE6XITMshn0D2Zvj-225" target="-RKACE6XITMshn0D2Zvj-228" edge="1">
          <mxGeometry relative="1" as="geometry" />
        </mxCell>
        <mxCell id="-RKACE6XITMshn0D2Zvj-224" style="edgeStyle=none;rounded=0;orthogonalLoop=1;jettySize=auto;html=1;exitX=1;exitY=1;exitDx=0;exitDy=0;shadow=0;" parent="1" source="-RKACE6XITMshn0D2Zvj-225" target="-RKACE6XITMshn0D2Zvj-231" edge="1">
          <mxGeometry relative="1" as="geometry" />
        </mxCell>
        <mxCell id="-RKACE6XITMshn0D2Zvj-225" value="&lt;font face=&quot;Comic Sans MS&quot; style=&quot;font-size: 15px&quot;&gt;b&lt;/font&gt;" style="ellipse;whiteSpace=wrap;html=1;aspect=fixed;fillColor=#dae8fc;strokeColor=#6c8ebf;shadow=1;" parent="1" vertex="1">
          <mxGeometry x="760" y="1599" width="40" height="40" as="geometry" />
        </mxCell>
        <mxCell id="-RKACE6XITMshn0D2Zvj-226" style="edgeStyle=none;rounded=0;orthogonalLoop=1;jettySize=auto;html=1;exitX=0;exitY=1;exitDx=0;exitDy=0;entryX=0.5;entryY=0;entryDx=0;entryDy=0;shadow=0;" parent="1" source="-RKACE6XITMshn0D2Zvj-228" target="-RKACE6XITMshn0D2Zvj-232" edge="1">
          <mxGeometry relative="1" as="geometry" />
        </mxCell>
        <mxCell id="-RKACE6XITMshn0D2Zvj-227" style="edgeStyle=none;rounded=0;orthogonalLoop=1;jettySize=auto;html=1;exitX=1;exitY=1;exitDx=0;exitDy=0;entryX=0.5;entryY=0;entryDx=0;entryDy=0;shadow=1;" parent="1" source="-RKACE6XITMshn0D2Zvj-228" target="-RKACE6XITMshn0D2Zvj-233" edge="1">
          <mxGeometry relative="1" as="geometry" />
        </mxCell>
        <mxCell id="-RKACE6XITMshn0D2Zvj-228" value="&lt;font style=&quot;font-size: 15px&quot; face=&quot;Comic Sans MS&quot;&gt;a&lt;/font&gt;" style="ellipse;whiteSpace=wrap;html=1;aspect=fixed;fillColor=#dae8fc;strokeColor=#6c8ebf;shadow=1;" parent="1" vertex="1">
          <mxGeometry x="680" y="1679" width="40" height="40" as="geometry" />
        </mxCell>
        <mxCell id="-RKACE6XITMshn0D2Zvj-229" style="edgeStyle=none;rounded=0;orthogonalLoop=1;jettySize=auto;html=1;exitX=0;exitY=1;exitDx=0;exitDy=0;entryX=0.5;entryY=0;entryDx=0;entryDy=0;shadow=0;" parent="1" source="-RKACE6XITMshn0D2Zvj-231" target="-RKACE6XITMshn0D2Zvj-234" edge="1">
          <mxGeometry relative="1" as="geometry" />
        </mxCell>
        <mxCell id="-RKACE6XITMshn0D2Zvj-231" value="&lt;font style=&quot;font-size: 15px&quot; face=&quot;Comic Sans MS&quot;&gt;c&lt;/font&gt;" style="ellipse;whiteSpace=wrap;html=1;aspect=fixed;fillColor=#f8cecc;strokeColor=#b85450;shadow=1;" parent="1" vertex="1">
          <mxGeometry x="840" y="1679" width="40" height="40" as="geometry" />
        </mxCell>
        <mxCell id="-RKACE6XITMshn0D2Zvj-232" value="&lt;font style=&quot;font-size: 15px&quot; face=&quot;Comic Sans MS&quot;&gt;a1&lt;/font&gt;" style="ellipse;whiteSpace=wrap;html=1;aspect=fixed;fillColor=#dae8fc;strokeColor=#6c8ebf;shadow=1;" parent="1" vertex="1">
          <mxGeometry x="640" y="1759" width="40" height="40" as="geometry" />
        </mxCell>
        <mxCell id="-RKACE6XITMshn0D2Zvj-233" value="&lt;font style=&quot;font-size: 15px&quot; face=&quot;Comic Sans MS&quot;&gt;a2&lt;/font&gt;" style="ellipse;whiteSpace=wrap;html=1;aspect=fixed;fillColor=#dae8fc;strokeColor=#6c8ebf;shadow=1;" parent="1" vertex="1">
          <mxGeometry x="720" y="1759" width="40" height="40" as="geometry" />
        </mxCell>
        <mxCell id="-RKACE6XITMshn0D2Zvj-234" value="&lt;font style=&quot;font-size: 15px&quot; face=&quot;Comic Sans MS&quot;&gt;c1&lt;/font&gt;" style="ellipse;whiteSpace=wrap;html=1;aspect=fixed;fillColor=#f8cecc;strokeColor=#b85450;shadow=1;" parent="1" vertex="1">
          <mxGeometry x="800" y="1759" width="40" height="40" as="geometry" />
        </mxCell>
        <mxCell id="-RKACE6XITMshn0D2Zvj-236" value="&lt;font style=&quot;font-size: 15px&quot; face=&quot;Comic Sans MS&quot;&gt;c&lt;/font&gt;" style="rounded=0;whiteSpace=wrap;html=1;shadow=1;fillColor=#f8cecc;strokeColor=#b85450;" parent="1" vertex="1">
          <mxGeometry x="920" y="1759" width="40" height="40" as="geometry" />
        </mxCell>
        <mxCell id="-RKACE6XITMshn0D2Zvj-237" value="a1" style="rounded=0;whiteSpace=wrap;html=1;shadow=0;fontFamily=Comic Sans MS;fontSize=15;sketch=0;" parent="1" vertex="1">
          <mxGeometry x="660" y="1840" width="40" height="40" as="geometry" />
        </mxCell>
        <mxCell id="-RKACE6XITMshn0D2Zvj-238" value="result" style="text;html=1;strokeColor=none;fillColor=none;align=center;verticalAlign=middle;whiteSpace=wrap;rounded=0;shadow=1;fontFamily=Comic Sans MS;fontSize=15;opacity=50;" parent="1" vertex="1">
          <mxGeometry x="660" y="1880" width="240" height="41" as="geometry" />
        </mxCell>
        <mxCell id="-RKACE6XITMshn0D2Zvj-239" value="a" style="rounded=0;whiteSpace=wrap;html=1;shadow=0;fontFamily=Comic Sans MS;fontSize=15;sketch=0;" parent="1" vertex="1">
          <mxGeometry x="700" y="1840" width="40" height="40" as="geometry" />
        </mxCell>
        <mxCell id="-RKACE6XITMshn0D2Zvj-240" value="a2" style="rounded=0;whiteSpace=wrap;html=1;shadow=0;fontFamily=Comic Sans MS;fontSize=15;sketch=0;" parent="1" vertex="1">
          <mxGeometry x="740" y="1840" width="40" height="40" as="geometry" />
        </mxCell>
        <mxCell id="-RKACE6XITMshn0D2Zvj-241" value="b" style="rounded=0;whiteSpace=wrap;html=1;shadow=0;fontFamily=Comic Sans MS;fontSize=15;sketch=0;" parent="1" vertex="1">
          <mxGeometry x="780" y="1840" width="40" height="40" as="geometry" />
        </mxCell>
        <mxCell id="-RKACE6XITMshn0D2Zvj-242" value="" style="rounded=0;whiteSpace=wrap;html=1;shadow=0;fontFamily=Comic Sans MS;fontSize=15;sketch=0;" parent="1" vertex="1">
          <mxGeometry x="820" y="1840" width="40" height="40" as="geometry" />
        </mxCell>
        <mxCell id="-RKACE6XITMshn0D2Zvj-243" value="" style="rounded=0;whiteSpace=wrap;html=1;shadow=0;fontFamily=Comic Sans MS;fontSize=15;sketch=0;" parent="1" vertex="1">
          <mxGeometry x="860" y="1840" width="40" height="40" as="geometry" />
        </mxCell>
        <mxCell id="-RKACE6XITMshn0D2Zvj-245" value="stack" style="text;html=1;strokeColor=none;fillColor=none;align=center;verticalAlign=middle;whiteSpace=wrap;rounded=0;shadow=1;fontFamily=Comic Sans MS;fontSize=15;opacity=50;" parent="1" vertex="1">
          <mxGeometry x="920" y="1799" width="40" height="30" as="geometry" />
        </mxCell>
        <mxCell id="-RKACE6XITMshn0D2Zvj-250" style="rounded=0;orthogonalLoop=1;jettySize=auto;html=1;exitX=0;exitY=1;exitDx=0;exitDy=0;entryX=1;entryY=0;entryDx=0;entryDy=0;shadow=0;" parent="1" source="-RKACE6XITMshn0D2Zvj-252" target="-RKACE6XITMshn0D2Zvj-255" edge="1">
          <mxGeometry relative="1" as="geometry" />
        </mxCell>
        <mxCell id="-RKACE6XITMshn0D2Zvj-251" style="edgeStyle=none;rounded=0;orthogonalLoop=1;jettySize=auto;html=1;exitX=1;exitY=1;exitDx=0;exitDy=0;shadow=0;" parent="1" source="-RKACE6XITMshn0D2Zvj-252" target="-RKACE6XITMshn0D2Zvj-257" edge="1">
          <mxGeometry relative="1" as="geometry" />
        </mxCell>
        <mxCell id="-RKACE6XITMshn0D2Zvj-252" value="&lt;font face=&quot;Comic Sans MS&quot; style=&quot;font-size: 15px&quot;&gt;b&lt;/font&gt;" style="ellipse;whiteSpace=wrap;html=1;aspect=fixed;fillColor=#dae8fc;strokeColor=#6c8ebf;shadow=1;" parent="1" vertex="1">
          <mxGeometry x="280" y="2000" width="40" height="40" as="geometry" />
        </mxCell>
        <mxCell id="-RKACE6XITMshn0D2Zvj-253" style="edgeStyle=none;rounded=0;orthogonalLoop=1;jettySize=auto;html=1;exitX=0;exitY=1;exitDx=0;exitDy=0;entryX=0.5;entryY=0;entryDx=0;entryDy=0;shadow=0;" parent="1" source="-RKACE6XITMshn0D2Zvj-255" target="-RKACE6XITMshn0D2Zvj-258" edge="1">
          <mxGeometry relative="1" as="geometry" />
        </mxCell>
        <mxCell id="-RKACE6XITMshn0D2Zvj-254" style="edgeStyle=none;rounded=0;orthogonalLoop=1;jettySize=auto;html=1;exitX=1;exitY=1;exitDx=0;exitDy=0;entryX=0.5;entryY=0;entryDx=0;entryDy=0;shadow=1;" parent="1" source="-RKACE6XITMshn0D2Zvj-255" target="-RKACE6XITMshn0D2Zvj-259" edge="1">
          <mxGeometry relative="1" as="geometry" />
        </mxCell>
        <mxCell id="-RKACE6XITMshn0D2Zvj-255" value="&lt;font style=&quot;font-size: 15px&quot; face=&quot;Comic Sans MS&quot;&gt;a&lt;/font&gt;" style="ellipse;whiteSpace=wrap;html=1;aspect=fixed;fillColor=#dae8fc;strokeColor=#6c8ebf;shadow=1;" parent="1" vertex="1">
          <mxGeometry x="200" y="2080" width="40" height="40" as="geometry" />
        </mxCell>
        <mxCell id="-RKACE6XITMshn0D2Zvj-256" style="edgeStyle=none;rounded=0;orthogonalLoop=1;jettySize=auto;html=1;exitX=0;exitY=1;exitDx=0;exitDy=0;entryX=0.5;entryY=0;entryDx=0;entryDy=0;shadow=0;" parent="1" source="-RKACE6XITMshn0D2Zvj-257" target="-RKACE6XITMshn0D2Zvj-260" edge="1">
          <mxGeometry relative="1" as="geometry" />
        </mxCell>
        <mxCell id="-RKACE6XITMshn0D2Zvj-257" value="&lt;font style=&quot;font-size: 15px&quot; face=&quot;Comic Sans MS&quot;&gt;c&lt;/font&gt;" style="ellipse;whiteSpace=wrap;html=1;aspect=fixed;fillColor=#f8cecc;strokeColor=#b85450;shadow=1;" parent="1" vertex="1">
          <mxGeometry x="360" y="2080" width="40" height="40" as="geometry" />
        </mxCell>
        <mxCell id="-RKACE6XITMshn0D2Zvj-258" value="&lt;font style=&quot;font-size: 15px&quot; face=&quot;Comic Sans MS&quot;&gt;a1&lt;/font&gt;" style="ellipse;whiteSpace=wrap;html=1;aspect=fixed;fillColor=#dae8fc;strokeColor=#6c8ebf;shadow=1;" parent="1" vertex="1">
          <mxGeometry x="160" y="2160" width="40" height="40" as="geometry" />
        </mxCell>
        <mxCell id="-RKACE6XITMshn0D2Zvj-259" value="&lt;font style=&quot;font-size: 15px&quot; face=&quot;Comic Sans MS&quot;&gt;a2&lt;/font&gt;" style="ellipse;whiteSpace=wrap;html=1;aspect=fixed;fillColor=#dae8fc;strokeColor=#6c8ebf;shadow=1;" parent="1" vertex="1">
          <mxGeometry x="240" y="2160" width="40" height="40" as="geometry" />
        </mxCell>
        <mxCell id="-RKACE6XITMshn0D2Zvj-260" value="&lt;font style=&quot;font-size: 15px&quot; face=&quot;Comic Sans MS&quot;&gt;c1&lt;/font&gt;" style="ellipse;whiteSpace=wrap;html=1;aspect=fixed;fillColor=#dae8fc;strokeColor=#6c8ebf;shadow=1;" parent="1" vertex="1">
          <mxGeometry x="320" y="2160" width="40" height="40" as="geometry" />
        </mxCell>
        <mxCell id="-RKACE6XITMshn0D2Zvj-262" value="a1" style="rounded=0;whiteSpace=wrap;html=1;shadow=0;fontFamily=Comic Sans MS;fontSize=15;sketch=0;" parent="1" vertex="1">
          <mxGeometry x="180" y="2240" width="40" height="40" as="geometry" />
        </mxCell>
        <mxCell id="-RKACE6XITMshn0D2Zvj-263" value="result" style="text;html=1;strokeColor=none;fillColor=none;align=center;verticalAlign=middle;whiteSpace=wrap;rounded=0;shadow=1;fontFamily=Comic Sans MS;fontSize=15;opacity=50;" parent="1" vertex="1">
          <mxGeometry x="180" y="2280" width="240" height="40" as="geometry" />
        </mxCell>
        <mxCell id="-RKACE6XITMshn0D2Zvj-264" value="a" style="rounded=0;whiteSpace=wrap;html=1;shadow=0;fontFamily=Comic Sans MS;fontSize=15;sketch=0;" parent="1" vertex="1">
          <mxGeometry x="220" y="2240" width="40" height="40" as="geometry" />
        </mxCell>
        <mxCell id="-RKACE6XITMshn0D2Zvj-265" value="a2" style="rounded=0;whiteSpace=wrap;html=1;shadow=0;fontFamily=Comic Sans MS;fontSize=15;sketch=0;" parent="1" vertex="1">
          <mxGeometry x="260" y="2240" width="40" height="40" as="geometry" />
        </mxCell>
        <mxCell id="-RKACE6XITMshn0D2Zvj-266" value="b" style="rounded=0;whiteSpace=wrap;html=1;shadow=0;fontFamily=Comic Sans MS;fontSize=15;sketch=0;" parent="1" vertex="1">
          <mxGeometry x="300" y="2240" width="40" height="40" as="geometry" />
        </mxCell>
        <mxCell id="-RKACE6XITMshn0D2Zvj-267" value="c1" style="rounded=0;whiteSpace=wrap;html=1;shadow=0;fontFamily=Comic Sans MS;fontSize=15;sketch=0;" parent="1" vertex="1">
          <mxGeometry x="340" y="2240" width="40" height="40" as="geometry" />
        </mxCell>
        <mxCell id="-RKACE6XITMshn0D2Zvj-268" value="" style="rounded=0;whiteSpace=wrap;html=1;shadow=0;fontFamily=Comic Sans MS;fontSize=15;sketch=0;" parent="1" vertex="1">
          <mxGeometry x="380" y="2240" width="40" height="40" as="geometry" />
        </mxCell>
        <mxCell id="-RKACE6XITMshn0D2Zvj-296" value="" style="rounded=0;whiteSpace=wrap;html=1;shadow=1;fillColor=#f8cecc;strokeColor=#b85450;" parent="1" vertex="1">
          <mxGeometry x="440" y="2000" width="40" height="40" as="geometry" />
        </mxCell>
        <mxCell id="-RKACE6XITMshn0D2Zvj-297" value="" style="rounded=0;whiteSpace=wrap;html=1;shadow=1;fillColor=#f8cecc;strokeColor=#b85450;" parent="1" vertex="1">
          <mxGeometry x="440" y="2040" width="40" height="40" as="geometry" />
        </mxCell>
        <mxCell id="-RKACE6XITMshn0D2Zvj-298" value="" style="rounded=0;whiteSpace=wrap;html=1;shadow=1;fillColor=#f8cecc;strokeColor=#b85450;" parent="1" vertex="1">
          <mxGeometry x="440" y="2080" width="40" height="40" as="geometry" />
        </mxCell>
        <mxCell id="-RKACE6XITMshn0D2Zvj-299" value="" style="rounded=0;whiteSpace=wrap;html=1;shadow=1;fillColor=#f8cecc;strokeColor=#b85450;" parent="1" vertex="1">
          <mxGeometry x="440" y="2120" width="40" height="40" as="geometry" />
        </mxCell>
        <mxCell id="-RKACE6XITMshn0D2Zvj-300" value="&lt;font style=&quot;font-size: 15px&quot; face=&quot;Comic Sans MS&quot;&gt;c&lt;/font&gt;" style="rounded=0;whiteSpace=wrap;html=1;shadow=1;fillColor=#f8cecc;strokeColor=#b85450;" parent="1" vertex="1">
          <mxGeometry x="440" y="2160" width="40" height="40" as="geometry" />
        </mxCell>
        <mxCell id="-RKACE6XITMshn0D2Zvj-301" value="stack" style="text;html=1;strokeColor=none;fillColor=none;align=center;verticalAlign=middle;whiteSpace=wrap;rounded=0;shadow=1;fontFamily=Comic Sans MS;fontSize=15;opacity=50;" parent="1" vertex="1">
          <mxGeometry x="440" y="2200" width="40" height="30" as="geometry" />
        </mxCell>
        <mxCell id="-RKACE6XITMshn0D2Zvj-302" style="rounded=0;orthogonalLoop=1;jettySize=auto;html=1;exitX=0;exitY=1;exitDx=0;exitDy=0;entryX=1;entryY=0;entryDx=0;entryDy=0;shadow=0;" parent="1" source="-RKACE6XITMshn0D2Zvj-304" target="-RKACE6XITMshn0D2Zvj-307" edge="1">
          <mxGeometry relative="1" as="geometry" />
        </mxCell>
        <mxCell id="-RKACE6XITMshn0D2Zvj-303" style="edgeStyle=none;rounded=0;orthogonalLoop=1;jettySize=auto;html=1;exitX=1;exitY=1;exitDx=0;exitDy=0;shadow=0;" parent="1" source="-RKACE6XITMshn0D2Zvj-304" target="-RKACE6XITMshn0D2Zvj-309" edge="1">
          <mxGeometry relative="1" as="geometry" />
        </mxCell>
        <mxCell id="-RKACE6XITMshn0D2Zvj-304" value="&lt;font face=&quot;Comic Sans MS&quot; style=&quot;font-size: 15px&quot;&gt;b&lt;/font&gt;" style="ellipse;whiteSpace=wrap;html=1;aspect=fixed;fillColor=#dae8fc;strokeColor=#6c8ebf;shadow=1;" parent="1" vertex="1">
          <mxGeometry x="760" y="2000" width="40" height="40" as="geometry" />
        </mxCell>
        <mxCell id="-RKACE6XITMshn0D2Zvj-305" style="edgeStyle=none;rounded=0;orthogonalLoop=1;jettySize=auto;html=1;exitX=0;exitY=1;exitDx=0;exitDy=0;entryX=0.5;entryY=0;entryDx=0;entryDy=0;shadow=0;" parent="1" source="-RKACE6XITMshn0D2Zvj-307" target="-RKACE6XITMshn0D2Zvj-310" edge="1">
          <mxGeometry relative="1" as="geometry" />
        </mxCell>
        <mxCell id="-RKACE6XITMshn0D2Zvj-306" style="edgeStyle=none;rounded=0;orthogonalLoop=1;jettySize=auto;html=1;exitX=1;exitY=1;exitDx=0;exitDy=0;entryX=0.5;entryY=0;entryDx=0;entryDy=0;shadow=1;" parent="1" source="-RKACE6XITMshn0D2Zvj-307" target="-RKACE6XITMshn0D2Zvj-311" edge="1">
          <mxGeometry relative="1" as="geometry" />
        </mxCell>
        <mxCell id="-RKACE6XITMshn0D2Zvj-307" value="&lt;font style=&quot;font-size: 15px&quot; face=&quot;Comic Sans MS&quot;&gt;a&lt;/font&gt;" style="ellipse;whiteSpace=wrap;html=1;aspect=fixed;fillColor=#dae8fc;strokeColor=#6c8ebf;shadow=1;" parent="1" vertex="1">
          <mxGeometry x="680" y="2080" width="40" height="40" as="geometry" />
        </mxCell>
        <mxCell id="-RKACE6XITMshn0D2Zvj-308" style="edgeStyle=none;rounded=0;orthogonalLoop=1;jettySize=auto;html=1;exitX=0;exitY=1;exitDx=0;exitDy=0;entryX=0.5;entryY=0;entryDx=0;entryDy=0;shadow=0;" parent="1" source="-RKACE6XITMshn0D2Zvj-309" target="-RKACE6XITMshn0D2Zvj-312" edge="1">
          <mxGeometry relative="1" as="geometry" />
        </mxCell>
        <mxCell id="-RKACE6XITMshn0D2Zvj-309" value="&lt;font style=&quot;font-size: 15px&quot; face=&quot;Comic Sans MS&quot;&gt;c&lt;/font&gt;" style="ellipse;whiteSpace=wrap;html=1;aspect=fixed;fillColor=#dae8fc;strokeColor=#6c8ebf;shadow=1;" parent="1" vertex="1">
          <mxGeometry x="840" y="2080" width="40" height="40" as="geometry" />
        </mxCell>
        <mxCell id="-RKACE6XITMshn0D2Zvj-310" value="&lt;font style=&quot;font-size: 15px&quot; face=&quot;Comic Sans MS&quot;&gt;a1&lt;/font&gt;" style="ellipse;whiteSpace=wrap;html=1;aspect=fixed;fillColor=#dae8fc;strokeColor=#6c8ebf;shadow=1;" parent="1" vertex="1">
          <mxGeometry x="640" y="2160" width="40" height="40" as="geometry" />
        </mxCell>
        <mxCell id="-RKACE6XITMshn0D2Zvj-311" value="&lt;font style=&quot;font-size: 15px&quot; face=&quot;Comic Sans MS&quot;&gt;a2&lt;/font&gt;" style="ellipse;whiteSpace=wrap;html=1;aspect=fixed;fillColor=#dae8fc;strokeColor=#6c8ebf;shadow=1;" parent="1" vertex="1">
          <mxGeometry x="720" y="2160" width="40" height="40" as="geometry" />
        </mxCell>
        <mxCell id="-RKACE6XITMshn0D2Zvj-312" value="&lt;font style=&quot;font-size: 15px&quot; face=&quot;Comic Sans MS&quot;&gt;c1&lt;/font&gt;" style="ellipse;whiteSpace=wrap;html=1;aspect=fixed;fillColor=#dae8fc;strokeColor=#6c8ebf;shadow=1;" parent="1" vertex="1">
          <mxGeometry x="800" y="2160" width="40" height="40" as="geometry" />
        </mxCell>
        <mxCell id="-RKACE6XITMshn0D2Zvj-313" value="a1" style="rounded=0;whiteSpace=wrap;html=1;shadow=0;fontFamily=Comic Sans MS;fontSize=15;sketch=0;" parent="1" vertex="1">
          <mxGeometry x="660" y="2240" width="40" height="40" as="geometry" />
        </mxCell>
        <mxCell id="-RKACE6XITMshn0D2Zvj-314" value="result" style="text;html=1;strokeColor=none;fillColor=none;align=center;verticalAlign=middle;whiteSpace=wrap;rounded=0;shadow=1;fontFamily=Comic Sans MS;fontSize=15;opacity=50;" parent="1" vertex="1">
          <mxGeometry x="660" y="2280" width="240" height="40" as="geometry" />
        </mxCell>
        <mxCell id="-RKACE6XITMshn0D2Zvj-315" value="a" style="rounded=0;whiteSpace=wrap;html=1;shadow=0;fontFamily=Comic Sans MS;fontSize=15;sketch=0;" parent="1" vertex="1">
          <mxGeometry x="700" y="2240" width="40" height="40" as="geometry" />
        </mxCell>
        <mxCell id="-RKACE6XITMshn0D2Zvj-316" value="a2" style="rounded=0;whiteSpace=wrap;html=1;shadow=0;fontFamily=Comic Sans MS;fontSize=15;sketch=0;" parent="1" vertex="1">
          <mxGeometry x="740" y="2240" width="40" height="40" as="geometry" />
        </mxCell>
        <mxCell id="-RKACE6XITMshn0D2Zvj-317" value="b" style="rounded=0;whiteSpace=wrap;html=1;shadow=0;fontFamily=Comic Sans MS;fontSize=15;sketch=0;" parent="1" vertex="1">
          <mxGeometry x="780" y="2240" width="40" height="40" as="geometry" />
        </mxCell>
        <mxCell id="-RKACE6XITMshn0D2Zvj-318" value="c1" style="rounded=0;whiteSpace=wrap;html=1;shadow=0;fontFamily=Comic Sans MS;fontSize=15;sketch=0;" parent="1" vertex="1">
          <mxGeometry x="820" y="2240" width="40" height="40" as="geometry" />
        </mxCell>
        <mxCell id="-RKACE6XITMshn0D2Zvj-319" value="c" style="rounded=0;whiteSpace=wrap;html=1;shadow=0;fontFamily=Comic Sans MS;fontSize=15;sketch=0;" parent="1" vertex="1">
          <mxGeometry x="860" y="2240" width="40" height="40" as="geometry" />
        </mxCell>
        <mxCell id="-RKACE6XITMshn0D2Zvj-321" value="" style="rounded=0;whiteSpace=wrap;html=1;shadow=1;fillColor=#f8cecc;strokeColor=#b85450;" parent="1" vertex="1">
          <mxGeometry x="920" y="2000" width="40" height="40" as="geometry" />
        </mxCell>
        <mxCell id="-RKACE6XITMshn0D2Zvj-322" value="" style="rounded=0;whiteSpace=wrap;html=1;shadow=1;fillColor=#f8cecc;strokeColor=#b85450;" parent="1" vertex="1">
          <mxGeometry x="920" y="2040" width="40" height="40" as="geometry" />
        </mxCell>
        <mxCell id="-RKACE6XITMshn0D2Zvj-323" value="" style="rounded=0;whiteSpace=wrap;html=1;shadow=1;fillColor=#f8cecc;strokeColor=#b85450;" parent="1" vertex="1">
          <mxGeometry x="920" y="2080" width="40" height="40" as="geometry" />
        </mxCell>
        <mxCell id="-RKACE6XITMshn0D2Zvj-324" value="" style="rounded=0;whiteSpace=wrap;html=1;shadow=1;fillColor=#f8cecc;strokeColor=#b85450;" parent="1" vertex="1">
          <mxGeometry x="920" y="2120" width="40" height="40" as="geometry" />
        </mxCell>
        <mxCell id="-RKACE6XITMshn0D2Zvj-325" value="" style="rounded=0;whiteSpace=wrap;html=1;shadow=1;fillColor=#f8cecc;strokeColor=#b85450;" parent="1" vertex="1">
          <mxGeometry x="920" y="2160" width="40" height="40" as="geometry" />
        </mxCell>
        <mxCell id="-RKACE6XITMshn0D2Zvj-326" value="stack" style="text;html=1;strokeColor=none;fillColor=none;align=center;verticalAlign=middle;whiteSpace=wrap;rounded=0;shadow=1;fontFamily=Comic Sans MS;fontSize=15;opacity=50;" parent="1" vertex="1">
          <mxGeometry x="920" y="2200" width="40" height="30" as="geometry" />
        </mxCell>
        <mxCell id="hB7AyyCU0ycAxecLt1gK-1" value="&lt;font style=&quot;font-size: 15px&quot; face=&quot;Comic Sans MS&quot;&gt;1&lt;/font&gt;" style="rounded=0;whiteSpace=wrap;html=1;opacity=0;" vertex="1" parent="1">
          <mxGeometry x="160" y="520" width="40" height="40" as="geometry" />
        </mxCell>
        <mxCell id="hB7AyyCU0ycAxecLt1gK-2" value="&lt;font style=&quot;font-size: 15px&quot; face=&quot;Comic Sans MS&quot;&gt;2&lt;/font&gt;" style="rounded=0;whiteSpace=wrap;html=1;opacity=0;" vertex="1" parent="1">
          <mxGeometry x="640" y="520" width="40" height="40" as="geometry" />
        </mxCell>
        <mxCell id="hB7AyyCU0ycAxecLt1gK-3" value="&lt;font style=&quot;font-size: 15px&quot; face=&quot;Comic Sans MS&quot;&gt;3&lt;/font&gt;" style="rounded=0;whiteSpace=wrap;html=1;opacity=0;" vertex="1" parent="1">
          <mxGeometry x="160" y="880" width="40" height="40" as="geometry" />
        </mxCell>
        <mxCell id="hB7AyyCU0ycAxecLt1gK-4" value="&lt;font style=&quot;font-size: 15px&quot; face=&quot;Comic Sans MS&quot;&gt;4&lt;/font&gt;" style="rounded=0;whiteSpace=wrap;html=1;opacity=0;" vertex="1" parent="1">
          <mxGeometry x="640" y="880" width="40" height="40" as="geometry" />
        </mxCell>
        <mxCell id="hB7AyyCU0ycAxecLt1gK-5" value="&lt;font style=&quot;font-size: 15px&quot; face=&quot;Comic Sans MS&quot;&gt;5&lt;/font&gt;" style="rounded=0;whiteSpace=wrap;html=1;opacity=0;" vertex="1" parent="1">
          <mxGeometry x="160" y="1240" width="40" height="40" as="geometry" />
        </mxCell>
        <mxCell id="hB7AyyCU0ycAxecLt1gK-6" value="&lt;font style=&quot;font-size: 15px&quot; face=&quot;Comic Sans MS&quot;&gt;6&lt;/font&gt;" style="rounded=0;whiteSpace=wrap;html=1;opacity=0;" vertex="1" parent="1">
          <mxGeometry x="640" y="1240" width="40" height="40" as="geometry" />
        </mxCell>
        <mxCell id="hB7AyyCU0ycAxecLt1gK-7" value="&lt;font style=&quot;font-size: 15px&quot; face=&quot;Comic Sans MS&quot;&gt;7&lt;/font&gt;" style="rounded=0;whiteSpace=wrap;html=1;opacity=0;" vertex="1" parent="1">
          <mxGeometry x="160" y="1601" width="40" height="40" as="geometry" />
        </mxCell>
        <mxCell id="hB7AyyCU0ycAxecLt1gK-8" value="&lt;font style=&quot;font-size: 15px&quot; face=&quot;Comic Sans MS&quot;&gt;8&lt;/font&gt;" style="rounded=0;whiteSpace=wrap;html=1;opacity=0;" vertex="1" parent="1">
          <mxGeometry x="640" y="1599" width="40" height="40" as="geometry" />
        </mxCell>
        <mxCell id="hB7AyyCU0ycAxecLt1gK-9" value="&lt;font style=&quot;font-size: 15px&quot; face=&quot;Comic Sans MS&quot;&gt;9&lt;/font&gt;" style="rounded=0;whiteSpace=wrap;html=1;opacity=0;" vertex="1" parent="1">
          <mxGeometry x="160" y="2000" width="40" height="40" as="geometry" />
        </mxCell>
        <mxCell id="hB7AyyCU0ycAxecLt1gK-10" value="&lt;font style=&quot;font-size: 15px&quot; face=&quot;Comic Sans MS&quot;&gt;10&lt;/font&gt;" style="rounded=0;whiteSpace=wrap;html=1;opacity=0;" vertex="1" parent="1">
          <mxGeometry x="640" y="2000" width="40" height="40" as="geometry" />
        </mxCell>
        <mxCell id="hB7AyyCU0ycAxecLt1gK-12" value="" style="rounded=0;whiteSpace=wrap;html=1;shadow=0;fontFamily=Comic Sans MS;fontSize=15;sketch=0;" vertex="1" parent="1">
          <mxGeometry x="180.5" y="1120" width="40" height="40" as="geometry" />
        </mxCell>
        <mxCell id="hB7AyyCU0ycAxecLt1gK-13" value="result" style="text;html=1;strokeColor=none;fillColor=none;align=center;verticalAlign=middle;whiteSpace=wrap;rounded=0;shadow=1;fontFamily=Comic Sans MS;fontSize=15;opacity=50;" vertex="1" parent="1">
          <mxGeometry x="180.5" y="1160" width="240" height="40" as="geometry" />
        </mxCell>
        <mxCell id="hB7AyyCU0ycAxecLt1gK-14" value="" style="rounded=0;whiteSpace=wrap;html=1;shadow=0;fontFamily=Comic Sans MS;fontSize=15;sketch=0;" vertex="1" parent="1">
          <mxGeometry x="220.5" y="1120" width="40" height="40" as="geometry" />
        </mxCell>
        <mxCell id="hB7AyyCU0ycAxecLt1gK-15" value="" style="rounded=0;whiteSpace=wrap;html=1;shadow=0;fontFamily=Comic Sans MS;fontSize=15;sketch=0;" vertex="1" parent="1">
          <mxGeometry x="260.5" y="1120" width="40" height="40" as="geometry" />
        </mxCell>
        <mxCell id="hB7AyyCU0ycAxecLt1gK-16" value="" style="rounded=0;whiteSpace=wrap;html=1;shadow=0;fontFamily=Comic Sans MS;fontSize=15;sketch=0;" vertex="1" parent="1">
          <mxGeometry x="300.5" y="1120" width="40" height="40" as="geometry" />
        </mxCell>
        <mxCell id="hB7AyyCU0ycAxecLt1gK-17" value="" style="rounded=0;whiteSpace=wrap;html=1;shadow=0;fontFamily=Comic Sans MS;fontSize=15;sketch=0;" vertex="1" parent="1">
          <mxGeometry x="340.5" y="1120" width="40" height="40" as="geometry" />
        </mxCell>
        <mxCell id="hB7AyyCU0ycAxecLt1gK-18" value="" style="rounded=0;whiteSpace=wrap;html=1;shadow=0;fontFamily=Comic Sans MS;fontSize=15;sketch=0;" vertex="1" parent="1">
          <mxGeometry x="380.5" y="1120" width="40" height="40" as="geometry" />
        </mxCell>
        <mxCell id="hB7AyyCU0ycAxecLt1gK-19" value="a1" style="rounded=0;whiteSpace=wrap;html=1;shadow=0;fontFamily=Comic Sans MS;fontSize=15;sketch=0;" vertex="1" parent="1">
          <mxGeometry x="660.5" y="1120" width="40" height="40" as="geometry" />
        </mxCell>
        <mxCell id="hB7AyyCU0ycAxecLt1gK-20" value="result" style="text;html=1;strokeColor=none;fillColor=none;align=center;verticalAlign=middle;whiteSpace=wrap;rounded=0;shadow=1;fontFamily=Comic Sans MS;fontSize=15;opacity=50;" vertex="1" parent="1">
          <mxGeometry x="660.5" y="1160" width="240" height="40" as="geometry" />
        </mxCell>
        <mxCell id="hB7AyyCU0ycAxecLt1gK-21" value="" style="rounded=0;whiteSpace=wrap;html=1;shadow=0;fontFamily=Comic Sans MS;fontSize=15;sketch=0;" vertex="1" parent="1">
          <mxGeometry x="700.5" y="1120" width="40" height="40" as="geometry" />
        </mxCell>
        <mxCell id="hB7AyyCU0ycAxecLt1gK-22" value="" style="rounded=0;whiteSpace=wrap;html=1;shadow=0;fontFamily=Comic Sans MS;fontSize=15;sketch=0;" vertex="1" parent="1">
          <mxGeometry x="740.5" y="1120" width="40" height="40" as="geometry" />
        </mxCell>
        <mxCell id="hB7AyyCU0ycAxecLt1gK-23" value="" style="rounded=0;whiteSpace=wrap;html=1;shadow=0;fontFamily=Comic Sans MS;fontSize=15;sketch=0;" vertex="1" parent="1">
          <mxGeometry x="780.5" y="1120" width="40" height="40" as="geometry" />
        </mxCell>
        <mxCell id="hB7AyyCU0ycAxecLt1gK-24" value="" style="rounded=0;whiteSpace=wrap;html=1;shadow=0;fontFamily=Comic Sans MS;fontSize=15;sketch=0;" vertex="1" parent="1">
          <mxGeometry x="820.5" y="1120" width="40" height="40" as="geometry" />
        </mxCell>
        <mxCell id="hB7AyyCU0ycAxecLt1gK-25" value="" style="rounded=0;whiteSpace=wrap;html=1;shadow=0;fontFamily=Comic Sans MS;fontSize=15;sketch=0;" vertex="1" parent="1">
          <mxGeometry x="860.5" y="1120" width="40" height="40" as="geometry" />
        </mxCell>
      </root>
    </mxGraphModel>
  </diagram>
</mxfile>
